<svg width="88" height="31" viewBox="0 0 88 31" fill="none" xmlns="http://www.w3.org/2000/svg">
<g clip-path="url(#clip0_22028_74)">
<g clip-path="url(#clip1_22028_74)">
<g clip-path="url(#clip2_22028_74)">
<mask id="mask0_22028_74" style="mask-type:luminance" maskUnits="userSpaceOnUse" x="0" y="0" width="88" height="31">
<path d="M87.2988 0.160034H0.298828V30.16H87.2988V0.160034Z" fill="white"/>
</mask>
<g mask="url(#mask0_22028_74)">
<mask id="mask1_22028_74" style="mask-type:luminance" maskUnits="userSpaceOnUse" x="0" y="0" width="87" height="31">
<path d="M86.5223 0.160034H0.791992V30.16H86.5223V0.160034Z" fill="white"/>
</mask>
<g mask="url(#mask1_22028_74)">
<path d="M56.883 25.123C56.7824 25.1326 56.713 25.1445 56.6436 25.1445C55.5811 25.1445 54.5185 25.1398 53.4559 25.135C53.2597 25.135 53.2334 25.1086 53.2047 24.9196C53.0611 23.9336 52.9223 22.9452 52.7739 21.9592C52.6207 20.9302 52.458 19.9035 52.3024 18.8745C52.1828 18.0727 52.0679 17.271 51.9483 16.4693C51.8382 15.7179 51.7257 14.964 51.6108 14.2126C51.5534 13.8297 51.4912 13.4468 51.4313 13.0639C51.4242 13.0232 51.4074 12.9849 51.3859 12.9179C51.3404 12.9681 51.2973 12.9945 51.283 13.0327C51.0939 13.4803 50.9048 13.9302 50.7206 14.3801C50.5291 14.8444 50.3448 15.3086 50.1534 15.7729C49.9117 16.364 49.67 16.9527 49.4283 17.5415C49.1865 18.1302 48.94 18.7189 48.6983 19.31C48.459 19.8939 48.2269 20.4803 47.9876 21.0642C47.8464 21.4088 47.7004 21.751 47.5592 22.0957C47.3151 22.6916 47.0734 23.2898 46.8293 23.8857C46.6809 24.2495 46.5277 24.6133 46.3794 24.9794C46.3363 25.0871 46.2645 25.1374 46.152 25.1374C45.8936 25.1374 45.6351 25.135 45.3766 25.1374C45.2259 25.1374 45.1373 25.0632 45.0871 24.9268C44.9818 24.6444 44.8717 24.3644 44.7616 24.0844C44.5606 23.5698 44.3595 23.0577 44.1609 22.5432C43.9766 22.0693 43.7947 21.5931 43.6105 21.1192C43.4047 20.5927 43.1965 20.0663 42.9906 19.5398C42.8088 19.0731 42.6317 18.604 42.4498 18.135C42.2512 17.6204 42.0477 17.1083 41.8467 16.5938C41.6577 16.1056 41.471 15.6174 41.2795 15.1292C41.0378 14.5093 40.7937 13.8871 40.5496 13.2673C40.4994 13.1357 40.4515 13.0016 40.3989 12.8604C40.2936 12.9059 40.284 12.9849 40.272 13.0591C40.1715 13.7268 40.0758 14.3921 39.9777 15.0598C39.9154 15.4786 39.846 15.895 39.7838 16.3138C39.7192 16.7469 39.657 17.1801 39.5947 17.6109C39.5445 17.9579 39.4966 18.3073 39.444 18.6543C39.377 19.0874 39.3004 19.5182 39.2358 19.949C39.1353 20.6358 39.0419 21.3274 38.9414 22.0143C38.8696 22.5025 38.7811 22.9907 38.7093 23.4789C38.6327 23.9886 38.5681 24.5008 38.4963 25.0129C38.4915 25.0416 38.4795 25.068 38.4652 25.1158C38.3862 25.123 38.3048 25.1398 38.2211 25.1374C37.1585 25.1374 36.0959 25.1326 35.0334 25.1278C34.9712 25.1278 34.9089 25.1158 34.8252 25.1063C34.8324 25.0201 34.8348 24.9507 34.8467 24.8813C34.9975 24.0126 35.1483 23.1415 35.2966 22.2727C35.4426 21.416 35.5814 20.5592 35.7274 19.7049C35.8877 18.7644 36.0529 17.8239 36.2132 16.8833C36.3496 16.084 36.4812 15.2847 36.6177 14.4854C36.7397 13.7698 36.8642 13.0567 36.9862 12.3435C37.2064 11.0488 37.4265 9.75414 37.6443 8.45944C37.6802 8.23926 37.7042 8.01909 37.7377 7.79892C37.7712 7.58115 37.8071 7.54525 38.0296 7.54525C39.1568 7.54525 40.284 7.54525 41.4112 7.54525C41.4471 7.54525 41.483 7.55003 41.5189 7.54764C41.6744 7.53807 41.7534 7.61944 41.8036 7.75585C41.9257 8.09328 42.0501 8.42832 42.177 8.76576C42.725 10.2232 43.2754 11.6806 43.8211 13.138C44.3571 14.5692 44.8908 16.0003 45.4269 17.4314C45.5465 17.7545 45.671 18.0751 45.7954 18.3958C45.8074 18.4269 45.8289 18.4533 45.8553 18.4939C45.9725 18.391 46.0036 18.2546 46.0491 18.1326C46.3746 17.2591 46.6953 16.3832 47.0207 15.5097C47.3582 14.6027 47.6932 13.6957 48.033 12.7863C48.337 11.9726 48.6409 11.1613 48.9448 10.3476C49.2631 9.49328 49.5814 8.64132 49.8997 7.78696C49.9906 7.54285 49.993 7.54285 50.2563 7.54285C51.2901 7.54285 52.324 7.54285 53.3578 7.54285C53.4942 7.54285 53.6306 7.54764 53.7671 7.55243C53.8652 7.55721 53.9226 7.60268 53.9394 7.70559C54.0231 8.20815 54.1117 8.70832 54.1978 9.21089C54.3175 9.91926 54.4371 10.6252 54.5568 11.3336C54.6573 11.9343 54.7554 12.5374 54.8583 13.138C54.9708 13.8033 55.0881 14.4663 55.2006 15.1316C55.2987 15.7035 55.3944 16.2779 55.4925 16.8498C55.6098 17.5367 55.7271 18.2211 55.8443 18.908C55.9496 19.5302 56.0525 20.1524 56.1578 20.7746C56.2703 21.4399 56.39 22.1028 56.5 22.7681C56.6101 23.4191 56.713 24.07 56.8183 24.7233C56.8375 24.843 56.8542 24.9627 56.8782 25.1182L56.883 25.123Z" fill="white" fill-opacity="0.64"/>
<path d="M71.3945 7.56695C71.4902 7.55977 71.5405 7.55259 71.5907 7.55259C72.6389 7.55259 73.6872 7.55259 74.7354 7.55259C75.0848 7.55259 75.0895 7.55737 75.0895 7.91396C75.0895 10.6781 75.0848 13.4422 75.0895 16.2063C75.0919 17.1109 75.0991 18.0155 75.1566 18.9177C75.2092 19.7122 75.4054 20.4781 75.8793 21.1434C76.4872 21.9953 77.3343 22.4237 78.3634 22.4907C78.7702 22.517 79.1819 22.5146 79.5911 22.4907C81.0725 22.3998 82.1231 21.409 82.5203 20.1957C82.719 19.5854 82.7955 18.9656 82.8027 18.3314C82.8195 16.6729 82.8362 15.0145 82.841 13.356C82.8458 11.4965 82.841 9.63703 82.841 7.77754C82.841 7.71532 82.8482 7.65071 82.8506 7.59327C83.0277 7.53823 86.256 7.53344 86.5097 7.59327C86.5145 7.67703 86.5241 7.76797 86.5241 7.85891C86.5241 10.7307 86.5241 13.6025 86.5217 16.4743C86.5217 17.221 86.5217 17.9676 86.5097 18.7143C86.5025 19.2671 86.4284 19.8175 86.3111 20.356C86.2201 20.7748 86.1244 21.196 85.9928 21.6052C85.7008 22.5146 85.2461 23.3283 84.5282 23.9745C84.0591 24.3957 83.5278 24.7187 82.9487 24.9628C82.1207 25.3099 81.2519 25.5013 80.3617 25.5755C79.6557 25.6329 78.9473 25.6688 78.2342 25.6234C77.5354 25.5779 76.8485 25.5061 76.1689 25.3434C75.2379 25.1208 74.3668 24.7618 73.6154 24.154C73.0554 23.7016 72.6198 23.1464 72.2967 22.5027C71.8707 21.6531 71.6506 20.7461 71.5166 19.808C71.4304 19.2169 71.3969 18.6234 71.3969 18.0275C71.3969 14.7321 71.3969 11.4367 71.3969 8.14131C71.3969 7.95703 71.3969 7.77276 71.3969 7.57173L71.3945 7.56695Z" fill="white" fill-opacity="0.64"/>
<path d="M69.8862 11.7907C69.8264 11.762 69.7929 11.75 69.7665 11.7308C69.0007 11.1349 68.1296 10.7903 67.1723 10.6587C66.4185 10.5534 65.667 10.5702 64.9299 10.7664C63.4031 11.1732 62.2161 12.0348 61.4359 13.4276C61.1679 13.9062 60.9764 14.416 60.8472 14.9449C60.8065 15.11 60.7946 15.2847 60.7802 15.457C60.7228 16.096 60.7228 16.7349 60.797 17.3691C60.8903 18.1541 61.1942 18.8649 61.6154 19.5254C62.3262 20.6382 63.3313 21.3801 64.5734 21.8084C64.9467 21.9377 65.3344 22.0143 65.7317 22.0358C65.7747 22.0358 65.8178 22.0382 65.8609 22.043C66.5932 22.1315 67.3087 22.0262 68.0052 21.8228C68.5939 21.6529 69.1371 21.3705 69.6421 21.0235C69.6947 20.9876 69.7498 20.9517 69.8048 20.9206C69.8216 20.911 69.8455 20.9134 69.8958 20.9038C69.9005 20.9828 69.9125 21.057 69.9125 21.1312C69.9125 22.1722 69.9149 23.2132 69.9173 24.2543C69.9173 24.3979 69.9125 24.5414 69.9173 24.685C69.9221 24.8214 69.8599 24.8908 69.733 24.9363C68.8308 25.2546 67.907 25.4939 66.9546 25.5896C65.3511 25.7524 63.8099 25.5083 62.331 24.8621C60.6103 24.1083 59.2558 22.9308 58.2435 21.3561C57.7289 20.5544 57.3317 19.6977 57.0899 18.7763C56.9009 18.0464 56.7669 17.3045 56.7884 16.5435C56.7932 16.364 56.7908 16.1845 56.7884 16.005C56.7693 15.2512 56.9009 14.5165 57.0923 13.7937C57.3173 12.949 57.6715 12.1592 58.131 11.4173C59.1816 9.71826 60.6462 8.51211 62.4793 7.74151C63.1566 7.45673 63.8602 7.26049 64.5877 7.14801C66.1648 6.9063 67.706 7.06185 69.2161 7.56442C69.3453 7.60749 69.477 7.64578 69.6038 7.69365C69.8982 7.80134 69.9101 7.82049 69.9173 8.12681C69.9173 8.22014 69.9197 8.31348 69.9197 8.40681C69.9197 9.44784 69.9173 10.4888 69.9125 11.5298C69.9125 11.6112 69.8958 11.6926 69.8862 11.7955V11.7907Z" fill="white" fill-opacity="0.64"/>
<path d="M33.5519 25.1279C33.437 25.1327 33.3221 25.1423 33.2097 25.1423C30.2302 25.1423 27.2531 25.1375 24.2736 25.1351C24.252 25.1351 24.2305 25.1351 24.209 25.1351C24.0079 25.1303 23.9912 25.116 23.9912 24.9078C23.9912 23.9888 23.9912 23.0698 23.9912 22.1508C23.9912 17.4076 23.9936 12.662 23.996 7.91876C23.996 7.81107 23.996 7.70577 23.996 7.57414C24.0702 7.56457 24.13 7.55261 24.1922 7.55261C25.262 7.55261 26.3317 7.55261 27.4015 7.55261C27.691 7.55261 27.6886 7.55739 27.6886 7.83739C27.6862 11.3625 27.6815 14.8852 27.6791 18.4103C27.6791 19.5806 27.6886 20.7508 27.6934 21.9211C27.6934 22.1389 27.7078 22.1532 27.9495 22.1532C29.7013 22.1532 31.4531 22.1485 33.2025 22.1485C33.4179 22.1485 33.6332 22.1532 33.8486 22.1676C33.9755 22.1748 33.9994 22.2107 33.9803 22.3351C33.851 23.2373 33.7194 24.1372 33.5878 25.037C33.5854 25.0561 33.571 25.0753 33.5495 25.1255L33.5519 25.1279Z" fill="white" fill-opacity="0.64"/>
<path d="M3.21812 24.0724C3.29231 24.0653 3.3665 24.0677 3.4359 24.0533C3.70872 23.9935 3.98633 23.9863 4.26394 23.9695C4.88137 23.9313 5.49641 23.9504 6.10906 24.0078C6.89641 24.082 7.67419 24.2232 8.43043 24.4554C9.07419 24.654 9.71317 24.8766 10.3521 25.0895C11.149 25.3552 11.9531 25.5897 12.7836 25.7261C12.9295 25.7501 13.0779 25.762 13.2263 25.7788C13.4393 25.8003 13.6499 25.8242 13.8629 25.8386C13.9801 25.8458 14.1022 25.8386 14.2195 25.8314C14.4229 25.8147 14.6239 25.7883 14.8273 25.7716C15.2653 25.7381 15.6889 25.628 16.1101 25.5203C16.3111 25.4701 16.5121 25.4102 16.7131 25.3576C16.7442 25.3504 16.7754 25.3528 16.8089 25.3528L16.8376 25.3935C16.8136 25.403 16.7873 25.4054 16.7682 25.4198C16.5049 25.6328 16.2178 25.8099 15.8995 25.9319C15.1983 26.2 14.4683 26.346 13.7217 26.3795C13.0085 26.4106 12.2906 26.4273 11.5798 26.3292C10.9743 26.2478 10.3736 26.1449 9.7706 26.054C9.16274 25.9607 8.55727 25.853 7.94701 25.7764C6.96582 25.6543 5.97983 25.5921 4.98906 25.6711C4.58701 25.7022 4.19453 25.7883 3.80923 25.9104C3.27317 26.0803 2.78735 26.3436 2.35419 26.7025C2.33983 26.7145 2.32069 26.7217 2.28479 26.7384C2.26086 26.7049 2.23214 26.6738 2.213 26.6355C2 26.2095 1.8277 25.7644 1.67693 25.3121C1.46394 24.6707 1.29163 24.0174 1.1624 23.3545C1.07146 22.8926 1.01163 22.4236 0.944617 21.9569C0.85607 21.3371 0.8106 20.7124 0.793848 20.0878C0.777096 19.4321 0.774702 18.7764 0.827352 18.123C0.882395 17.4242 0.935044 16.7278 1.05231 16.0362C1.15043 15.4547 1.25573 14.8731 1.37539 14.294C1.54052 13.4923 1.76308 12.7025 2.0024 11.92C2.33983 10.8215 2.73949 9.7494 3.19419 8.69641C3.613 7.72 4.07009 6.76274 4.57265 5.82462C5.06086 4.91043 5.58017 4.0106 6.12821 3.12991C6.68582 2.23726 7.26975 1.36137 7.88718 0.509406C7.94941 0.425645 8.00684 0.339491 8.06906 0.255731C8.0906 0.227013 8.11214 0.203081 8.13847 0.179149C8.18394 0.140859 8.22941 0.145645 8.27248 0.186329C8.31077 0.222226 8.31077 0.26291 8.28205 0.305987C8.21026 0.413679 8.13846 0.521371 8.06906 0.629064C7.59761 1.36615 7.1453 2.11282 6.75043 2.8906C6.51111 3.36444 6.2718 3.8359 6.04205 4.31453C5.83864 4.73812 5.64479 5.16889 5.45812 5.59966C5.31453 5.93231 5.1877 6.26974 5.05607 6.60718C4.92205 6.95419 4.78804 7.3012 4.66359 7.6506C4.5559 7.94974 4.45539 8.25128 4.35966 8.55282C4.24958 8.89744 4.14428 9.24444 4.04137 9.59145C3.9624 9.85709 3.8906 10.1251 3.8212 10.3955C3.74223 10.7018 3.66325 11.0106 3.59146 11.3193C3.51248 11.6663 3.44069 12.0181 3.3665 12.3675C3.31864 12.5948 3.27556 12.8246 3.23248 13.0543C3.1918 13.2793 3.14872 13.5042 3.11522 13.7292C3.053 14.1504 2.98599 14.574 2.94052 14.9976C2.8759 15.5935 2.83761 16.1942 2.78735 16.7924C2.70359 17.7952 2.72274 18.7955 2.73949 19.7983C2.74428 20.0663 2.7706 20.3319 2.78496 20.6C2.80411 20.9159 2.81368 21.2366 2.84718 21.5501C2.91658 22.1507 2.99795 22.7514 3.07932 23.3521C3.10804 23.5627 3.14633 23.7733 3.17983 23.9839C3.18462 24.0078 3.1918 24.0294 3.20376 24.0701L3.21812 24.0724Z" fill="white" fill-opacity="0.64"/>
<path d="M10.7665 13.813C10.6205 13.6383 7.48306 7.65542 7.44238 7.46397C8.02392 8.14841 8.58392 8.852 9.15588 9.54602C9.72546 10.2377 10.2855 10.9365 10.8814 11.6257C10.9292 11.573 10.9604 11.5419 10.9843 11.5084C11.9104 10.2018 12.9419 8.98123 13.9877 7.77269C14.0882 7.65542 14.1863 7.53816 14.2869 7.42089C14.3898 7.29884 14.4161 7.29406 14.5429 7.38978C14.9689 7.71047 15.347 8.0838 15.6988 8.48106C16.6202 9.52927 17.3405 10.7067 17.934 11.9655C18.4055 12.9683 18.7788 14.0093 19.0851 15.0742C19.3005 15.8185 19.4824 16.57 19.626 17.331C19.7457 17.97 19.8462 18.6113 19.9323 19.2551C20.0089 19.8103 20.0472 20.3703 20.1142 20.9279C20.1621 21.3324 20.1597 21.7416 20.1884 22.146C20.2506 22.9741 20.2674 23.8021 20.2554 24.6301C20.2482 25.1662 20.2219 25.7023 20.2028 26.2383C20.186 26.6739 20.1692 27.1118 20.1453 27.5474C20.1357 27.7197 20.107 27.892 20.0879 28.0643C20.0807 28.1242 20.052 28.1553 19.9945 28.1577C19.9491 28.1577 19.906 28.16 19.8605 28.1577C19.8079 28.1553 19.7792 28.1242 19.7768 28.0715C19.7744 28.0308 19.7696 27.9925 19.7696 27.9518C19.7576 27.6096 19.7528 27.2674 19.7337 26.9252C19.7122 26.5327 19.6834 26.1426 19.6499 25.7525C19.5973 25.1542 19.5446 24.5559 19.4776 23.96C19.401 23.29 19.3149 22.6199 19.2239 21.9522C19.1522 21.4257 19.0804 20.8992 18.9822 20.3775C18.8243 19.5351 18.6544 18.6927 18.4701 17.8551C18.3074 17.1228 18.1039 16.4024 17.8814 15.6869C17.6851 15.0575 17.4674 14.4353 17.2161 13.825C16.8308 12.8869 16.3761 11.9847 15.7898 11.1542C15.3398 10.5177 14.8253 9.94329 14.1959 9.47901C14.0547 9.37371 14.0332 9.37611 13.9135 9.51012C13.2147 10.2855 12.5686 11.1016 11.9727 11.9583C11.5802 12.5207 11.2116 13.0951 10.8646 13.6862C10.8407 13.7269 10.8072 13.7628 10.7689 13.8106L10.7665 13.813Z" fill="white" fill-opacity="0.64"/>
</g>
</g>
</g>
</g>
</g>
<defs>
<clipPath id="clip0_22028_74">
<rect width="88" height="30" fill="white" transform="translate(-0.00976562 0.160034)"/>
</clipPath>
<clipPath id="clip1_22028_74">
<rect width="88" height="30" fill="white" transform="translate(-0.00976562 0.160034)"/>
</clipPath>
<clipPath id="clip2_22028_74">
<rect width="88" height="30" fill="white" transform="translate(-0.00976562 0.160034)"/>
</clipPath>
</defs>
</svg>
