<svg width="82" height="31" viewBox="0 0 82 31" fill="none" xmlns="http://www.w3.org/2000/svg">
<g clip-path="url(#clip0_20001_333)">
<g clip-path="url(#clip1_20001_333)">
<g clip-path="url(#clip2_20001_333)">
<mask id="mask0_20001_333" style="mask-type:luminance" maskUnits="userSpaceOnUse" x="0" y="0" width="82" height="31">
<path d="M81.9906 0.160034H0.172363V30.16H81.9906V0.160034Z" fill="white"/>
</mask>
<g mask="url(#mask0_20001_333)">
<path d="M36.6463 8.745C32.548 8.745 29.4976 11.8702 29.4976 16.0247C29.4976 20.1605 32.5854 23.3045 36.6463 23.3045C39.491 23.3045 41.8863 21.7887 43.0841 19.3559L39.5471 18.4202C38.967 19.3745 37.919 19.9735 36.6463 19.9735C34.8311 19.9735 33.596 18.9442 33.2778 17.054H43.7203C43.7578 16.6985 43.7951 16.3242 43.7951 15.9686C43.7951 12.0199 40.8945 8.745 36.6463 8.745ZM33.3714 14.5276C33.8018 12.8995 34.9808 11.9264 36.6463 11.9264C38.312 11.9264 39.5283 12.8434 40.0523 14.5276H33.3714Z" fill="white" fill-opacity="0.64"/>
<path d="M15.3687 22.9303H19.0928V15.6879C19.0928 13.4422 20.328 12.0948 22.1807 12.0948C23.865 12.0948 24.5948 13.1241 24.5948 15.1826V22.9303H28.3189V14.5464C28.3189 11.0281 26.3726 8.80114 23.2473 8.80114C21.6005 8.80114 20.1221 9.4187 19.0741 10.4105V4.16003H15.3687" fill="white" fill-opacity="0.64"/>
<path d="M72.0905 9.13799H67.7862L63.6504 15.2575V4.16003H59.9263V22.9303H63.6504V16.3242L68.0669 22.9303H72.577L67.4119 15.7066L72.0905 9.13799Z" fill="white" fill-opacity="0.64"/>
<path d="M80.755 9.06335C78.9771 9.06335 77.742 9.60606 76.7502 10.8224L76.0952 9.13821H73.6997V22.9305H77.4426V15.763C77.4426 13.5173 78.266 12.5816 80.3807 12.5816H81.9901V9.06335H80.755Z" fill="white" fill-opacity="0.64"/>
<path d="M7.5083 19.8237C5.50589 19.8237 3.97133 18.1582 3.97133 16.0247C3.97133 13.8914 5.48718 12.2632 7.5083 12.2632C8.91186 12.2632 10.1657 12.9931 10.7833 14.3218L14.1893 13.1428C13.1226 10.4479 10.6149 8.745 7.54573 8.745C3.33505 8.745 0.172363 11.8515 0.172363 15.9874C0.172363 20.1232 3.35377 23.3233 7.48959 23.3233C10.6149 23.3233 13.1974 21.5455 14.2267 18.757L10.7646 17.5594C10.2406 18.9629 8.94929 19.8237 7.5083 19.8237Z" fill="white" fill-opacity="0.64"/>
<path d="M52.0483 19.8237C50.0458 19.8237 48.5113 18.1582 48.5113 16.0247C48.5113 13.8914 50.0271 12.2632 52.0483 12.2632C53.4518 12.2632 54.7056 12.9931 55.3232 14.3218L58.7292 13.1428C57.6625 10.4479 55.1548 8.745 52.0856 8.745C47.8937 8.745 44.731 11.8515 44.731 15.9874C44.731 20.1232 47.9125 23.3233 52.0483 23.3233C55.1735 23.3233 57.7561 21.5455 58.7854 18.757L55.3232 17.5594C54.7992 18.9629 53.4893 19.8237 52.0483 19.8237Z" fill="white" fill-opacity="0.64"/>
</g>
</g>
</g>
</g>
<defs>
<clipPath id="clip0_20001_333">
<rect width="82" height="30" fill="white" transform="translate(-0.00976562 0.160034)"/>
</clipPath>
<clipPath id="clip1_20001_333">
<rect width="82" height="30" fill="white" transform="translate(-0.00976562 0.160034)"/>
</clipPath>
<clipPath id="clip2_20001_333">
<rect width="82" height="30" fill="white" transform="translate(-0.00976562 0.160034)"/>
</clipPath>
</defs>
</svg>
