<svg width="115" height="31" viewBox="0 0 115 31" fill="none" xmlns="http://www.w3.org/2000/svg">
<g clip-path="url(#clip0_22028_18)">
<g clip-path="url(#clip1_22028_18)">
<g clip-path="url(#clip2_22028_18)">
<mask id="mask0_22028_18" style="mask-type:luminance" maskUnits="userSpaceOnUse" x="-1" y="0" width="116" height="31">
<path d="M114.99 0.160034H-0.00976562V30.16H114.99V0.160034Z" fill="white"/>
</mask>
<g mask="url(#mask0_22028_18)">
<mask id="mask1_22028_18" style="mask-type:luminance" maskUnits="userSpaceOnUse" x="-1" y="0" width="116" height="31">
<path d="M114.303 0.160034H-0.00976562V30.16H114.303V0.160034Z" fill="white"/>
</mask>
<g mask="url(#mask1_22028_18)">
<path d="M94.3681 21.8676C94.3681 14.492 100.009 8.05025 104.64 8.05025C106.165 8.05025 107.099 8.86977 107.099 10.0514C107.099 12.3574 103.611 14.9303 101.972 16.0167C101.667 16.2263 101.286 16.455 101.286 16.779C101.286 17.1792 101.686 17.3698 102.43 17.4461C105.098 17.6938 107.423 18.4752 107.423 20.0571C107.423 21.6389 105.746 22.649 100.981 23.1064C97.3984 23.4495 95.5878 24.0975 94.5777 24.4787C94.5015 24.0784 94.3681 23.2399 94.3681 21.8676ZM90.8613 19.2947C90.8613 25.565 93.701 29.2242 94.3109 29.796C96.9028 28.4238 99.247 27.9854 104.202 27.1659C111.063 26.0224 114.303 24.0975 114.303 20.8385C114.303 17.1983 109.195 15.6355 105.327 15.4259C105.022 15.4068 104.774 15.2925 104.774 15.0447C104.774 14.8541 104.964 14.7398 105.155 14.5873C108.643 12.0144 112.435 8.37425 112.435 4.39102C112.435 2.44705 111.216 0.160034 107.518 0.160034C100.181 0.160034 90.8613 9.30812 90.8613 19.2947Z" fill="white" fill-opacity="0.64"/>
<path d="M7.27058 11.0199C7.27058 12.5065 6.27954 13.5166 4.65956 13.5166H2.29631V8.84725H4.85015C6.08895 8.84725 7.27058 9.53336 7.27058 11.0199ZM10.4343 18.2812C10.4343 16.2229 8.7762 14.622 6.81318 14.2408C8.28068 13.9168 9.51948 12.4684 9.51948 10.715C9.51948 8.54232 7.93763 7.09387 5.44096 7.09387H-0.00976562V22.3216L6.05084 22.3407C7.67081 22.3407 10.4343 20.9113 10.4343 18.2812ZM7.78516 17.9953C7.7661 19.4057 6.85129 20.5111 4.85015 20.5111H2.29631V15.289H4.77392C6.54636 15.289 7.84234 16.2229 7.78516 17.9953Z" fill="white" fill-opacity="0.64"/>
<path d="M19.7538 15.6893H14.4555C14.4555 13.8787 15.4465 12.1444 17.1618 12.1444C18.9914 12.1634 19.83 13.9549 19.7538 15.6893ZM21.6787 17.1186C21.9074 14.5457 21.0497 10.6578 17.1046 10.6578C14.1506 10.6578 12.1494 13.326 12.1494 16.2801C12.1494 19.6344 13.7694 22.5694 17.1237 22.5694C19.0105 22.5694 20.3827 21.7689 21.45 20.4729L20.1731 19.3675C19.4107 20.2824 18.3816 20.8541 17.0665 20.8541C15.256 20.8541 14.3793 18.9101 14.3602 17.1186H21.6787Z" fill="white" fill-opacity="0.64"/>
<path d="M26.6914 22.4932C25.1095 22.4932 24.3662 21.102 24.3662 19.6726V12.3541H22.5557V11.668C23.3371 11.1915 23.7564 10.8485 24.3662 10.1624C24.9761 9.45724 25.2811 9.01889 25.7003 8.16125H26.4627V10.9057H29.0737V12.3541H26.4627V19.2152C26.4627 19.9585 26.6914 20.6636 27.5109 20.8161C28.1779 20.9304 28.7116 20.8733 29.3024 20.7017V22.0549C28.521 22.3789 27.854 22.4932 26.6914 22.4932Z" fill="white" fill-opacity="0.64"/>
<path d="M37.8594 22.3216V14.2027C37.8594 13.2498 37.5163 12.354 36.2966 12.354C34.6575 12.354 33.3616 13.2879 33.3616 14.2408V22.3407H31.2461V6.16003H33.3616V12.1253C34.1811 11.4964 35.6105 10.6578 37.2876 10.6769C38.9076 10.6959 39.9558 11.8776 39.9558 13.3069V22.3216H37.8594Z" fill="white" fill-opacity="0.64"/>
<path d="M49.5999 16.6231C49.5999 18.548 49.2187 21.0066 47.2747 21.0066C46.1312 21.0066 44.8543 20.1108 44.8543 19.3866V14.1646C44.8543 13.2879 46.0169 12.2968 47.2175 12.335C49.1425 12.3159 49.5999 14.6792 49.5999 16.6231ZM51.8488 16.6231C51.8488 13.8406 50.9149 10.6959 47.8846 10.6959C46.6077 10.6959 45.6547 11.1533 44.8162 12.1253L44.6256 10.9056H42.7388V26.1333H44.8543V21.2353C45.6929 22.1691 46.6077 22.5884 47.8846 22.5884C50.7815 22.5694 51.8488 19.3866 51.8488 16.6231Z" fill="white" fill-opacity="0.64"/>
<path d="M60.082 19.3675C60.082 20.0537 58.6526 20.9303 57.5282 20.9494C56.4228 20.9685 55.7557 20.2633 55.7557 19.0436C55.7557 17.576 57.471 17.0805 58.9766 16.8899L60.082 16.7565V19.3675ZM62.0641 22.3216V13.7643C62.0641 11.706 60.7872 10.6769 58.5764 10.6769C56.6896 10.6769 55.184 11.2677 54.0595 12.1634L55.1078 13.4404C55.7748 12.8305 56.7277 12.2778 58.1952 12.2778C59.3197 12.2778 59.9677 12.8495 59.9677 14.0121V15.3271L58.0809 15.5558C55.6033 15.8608 53.5259 17.0043 53.5259 19.3485C53.5259 21.0447 54.6885 22.6075 56.5753 22.6075C57.9665 22.6075 58.9766 21.9976 59.9677 21.159L60.1201 22.3216H62.0641Z" fill="white" fill-opacity="0.64"/>
<path d="M71.2308 18.9293C70.4113 19.7298 69.7824 20.2825 68.677 20.1872C66.9808 20.0156 66.5424 18.4338 66.5424 16.3755C66.5424 14.3171 67.0761 12.3351 68.9247 12.316C70.0111 12.2969 70.8115 12.9068 71.2118 13.8979V18.9293H71.2308ZM73.3272 22.2074V10.9057H71.5167L71.288 12.0111C70.5066 11.1534 69.7252 10.7723 68.5436 10.677C65.8182 10.4864 64.2363 13.5548 64.2363 16.2802C64.2363 19.0055 65.5895 21.8834 68.2767 21.8834C69.5346 21.8834 70.3541 21.5403 71.2499 20.6636V22.2645C71.2499 23.4843 70.2969 24.3229 69.1153 24.5325C67.4572 24.8374 66.4471 24.2847 65.2655 23.3318L64.2745 24.7612C65.3227 25.5426 66.1231 26.1525 68.353 26.2096C70.8496 26.2668 73.3272 24.704 73.3272 22.2074Z" fill="white" fill-opacity="0.64"/>
<path d="M83.0663 15.6893H77.768C77.768 13.8787 78.759 12.1444 80.4743 12.1444C82.3039 12.1634 83.1425 13.9549 83.0663 15.6893ZM84.934 17.1186C85.1627 14.5457 84.3051 10.6578 80.379 10.6578C77.4249 10.6578 75.4238 13.326 75.4238 16.2801C75.4238 19.6344 77.0438 22.5694 80.3981 22.5694C82.2849 22.5694 83.6571 21.7689 84.7243 20.4729L83.4474 19.3675C82.6851 20.2824 81.6559 20.8541 80.36 20.8541C78.5494 20.8541 77.6727 18.9101 77.6536 17.1186H84.934Z" fill="white" fill-opacity="0.64"/>
<path d="M85.9061 11.9537C85.4105 11.9537 85.0103 11.5535 85.0103 11.0579C85.0103 10.5624 85.4105 10.1622 85.9061 10.1622C86.4016 10.1622 86.8018 10.5624 86.8018 11.0579C86.8018 11.5344 86.4016 11.9537 85.9061 11.9537ZM85.9251 10.2956C85.5249 10.2956 85.1818 10.6196 85.1818 11.0389C85.1818 11.4582 85.5058 11.7822 85.9251 11.7822C86.3444 11.7822 86.6684 11.4582 86.6684 11.0389C86.6684 10.6387 86.3254 10.2956 85.9251 10.2956ZM86.2301 11.5725L85.9632 11.1342H85.7727V11.5535H85.5821V10.5243H85.9442C86.1729 10.5243 86.3444 10.6005 86.3444 10.8102C86.3444 10.9436 86.2682 11.0579 86.1348 11.0961L86.4016 11.4772L86.2301 11.5725ZM85.9061 10.6577H85.7536V11.0008H85.9061C86.0204 11.0008 86.1348 10.9245 86.1348 10.8292C86.1348 10.6768 86.0204 10.6577 85.9061 10.6577Z" fill="white" fill-opacity="0.64"/>
</g>
</g>
</g>
</g>
</g>
<defs>
<clipPath id="clip0_22028_18">
<rect width="115" height="30" fill="white" transform="translate(-0.00976562 0.160034)"/>
</clipPath>
<clipPath id="clip1_22028_18">
<rect width="115" height="30" fill="white" transform="translate(-0.00976562 0.160034)"/>
</clipPath>
<clipPath id="clip2_22028_18">
<rect width="115" height="30" fill="white" transform="translate(-0.00976562 0.160034)"/>
</clipPath>
</defs>
</svg>
