<svg width="88" height="31" viewBox="0 0 88 31" fill="none" xmlns="http://www.w3.org/2000/svg">
<g clip-path="url(#clip0_20001_292)">
<g clip-path="url(#clip1_20001_292)">
<g clip-path="url(#clip2_20001_292)">
<mask id="mask0_20001_292" style="mask-type:luminance" maskUnits="userSpaceOnUse" x="0" y="0" width="88" height="31">
<path d="M87.2993 0.160034H0.299316V30.16H87.2993V0.160034Z" fill="white"/>
</mask>
<g mask="url(#mask0_20001_292)">
<mask id="mask1_20001_292" style="mask-type:luminance" maskUnits="userSpaceOnUse" x="0" y="0" width="87" height="31">
<path d="M86.5223 0.160034H0.791992V30.16H86.5223V0.160034Z" fill="white"/>
</mask>
<g mask="url(#mask1_20001_292)">
<path d="M56.883 25.123C56.7824 25.1326 56.713 25.1445 56.6436 25.1445C55.5811 25.1445 54.5185 25.1398 53.4559 25.135C53.2597 25.135 53.2334 25.1086 53.2047 24.9196C53.0611 23.9336 52.9223 22.9452 52.7739 21.9592C52.6207 20.9302 52.458 19.9035 52.3024 18.8745C52.1828 18.0727 52.0679 17.271 51.9483 16.4693C51.8382 15.7179 51.7257 14.964 51.6108 14.2126C51.5534 13.8297 51.4912 13.4468 51.4313 13.0639C51.4242 13.0232 51.4074 12.9849 51.3859 12.9179C51.3404 12.9681 51.2973 12.9945 51.283 13.0327C51.0939 13.4803 50.9048 13.9302 50.7206 14.3801C50.5291 14.8444 50.3448 15.3086 50.1534 15.7729C49.9117 16.364 49.67 16.9527 49.4283 17.5415C49.1865 18.1302 48.94 18.7189 48.6983 19.31C48.459 19.8939 48.2269 20.4803 47.9876 21.0642C47.8464 21.4088 47.7004 21.751 47.5592 22.0957C47.3151 22.6916 47.0734 23.2898 46.8293 23.8857C46.6809 24.2495 46.5277 24.6133 46.3794 24.9794C46.3363 25.0871 46.2645 25.1374 46.152 25.1374C45.8936 25.1374 45.6351 25.135 45.3766 25.1374C45.2259 25.1374 45.1373 25.0632 45.0871 24.9268C44.9818 24.6444 44.8717 24.3644 44.7616 24.0844C44.5606 23.5698 44.3595 23.0577 44.1609 22.5432C43.9766 22.0693 43.7947 21.5931 43.6105 21.1192C43.4047 20.5927 43.1965 20.0663 42.9906 19.5398C42.8088 19.0731 42.6317 18.604 42.4498 18.135C42.2512 17.6204 42.0477 17.1083 41.8467 16.5938C41.6577 16.1056 41.471 15.6174 41.2795 15.1292C41.0378 14.5093 40.7937 13.8871 40.5496 13.2673C40.4994 13.1357 40.4515 13.0016 40.3989 12.8604C40.2936 12.9059 40.284 12.9849 40.272 13.0591C40.1715 13.7268 40.0758 14.3921 39.9777 15.0598C39.9154 15.4786 39.846 15.895 39.7838 16.3138C39.7192 16.7469 39.657 17.1801 39.5947 17.6109C39.5445 17.9579 39.4966 18.3073 39.444 18.6543C39.377 19.0874 39.3004 19.5182 39.2358 19.949C39.1353 20.6358 39.0419 21.3274 38.9414 22.0143C38.8696 22.5025 38.7811 22.9907 38.7093 23.4789C38.6327 23.9886 38.5681 24.5008 38.4963 25.0129C38.4915 25.0416 38.4795 25.068 38.4652 25.1158C38.3862 25.123 38.3048 25.1398 38.2211 25.1374C37.1585 25.1374 36.0959 25.1326 35.0334 25.1278C34.9712 25.1278 34.9089 25.1158 34.8252 25.1063C34.8324 25.0201 34.8348 24.9507 34.8467 24.8813C34.9975 24.0126 35.1483 23.1415 35.2966 22.2727C35.4426 21.416 35.5814 20.5592 35.7274 19.7049C35.8877 18.7644 36.0529 17.8239 36.2132 16.8833C36.3496 16.084 36.4812 15.2847 36.6177 14.4854C36.7397 13.7698 36.8642 13.0567 36.9862 12.3435C37.2064 11.0488 37.4265 9.75414 37.6443 8.45944C37.6802 8.23926 37.7042 8.01909 37.7377 7.79892C37.7712 7.58115 37.8071 7.54525 38.0296 7.54525C39.1568 7.54525 40.284 7.54525 41.4112 7.54525C41.4471 7.54525 41.483 7.55003 41.5189 7.54764C41.6744 7.53807 41.7534 7.61944 41.8036 7.75585C41.9257 8.09328 42.0501 8.42832 42.177 8.76576C42.725 10.2232 43.2754 11.6806 43.8211 13.138C44.3571 14.5692 44.8908 16.0003 45.4269 17.4314C45.5465 17.7545 45.671 18.0751 45.7954 18.3958C45.8074 18.4269 45.8289 18.4533 45.8553 18.4939C45.9725 18.391 46.0036 18.2546 46.0491 18.1326C46.3746 17.2591 46.6953 16.3832 47.0207 15.5097C47.3582 14.6027 47.6932 13.6957 48.033 12.7863C48.337 11.9726 48.6409 11.1613 48.9448 10.3476C49.2631 9.49328 49.5814 8.64132 49.8997 7.78696C49.9906 7.54285 49.993 7.54285 50.2563 7.54285C51.2901 7.54285 52.324 7.54285 53.3578 7.54285C53.4942 7.54285 53.6306 7.54764 53.7671 7.55243C53.8652 7.55721 53.9226 7.60268 53.9394 7.70559C54.0231 8.20815 54.1117 8.70832 54.1978 9.21089C54.3175 9.91926 54.4371 10.6252 54.5568 11.3336C54.6573 11.9343 54.7554 12.5374 54.8583 13.138C54.9708 13.8033 55.0881 14.4663 55.2006 15.1316C55.2987 15.7035 55.3944 16.2779 55.4925 16.8498C55.6098 17.5367 55.7271 18.2211 55.8443 18.908C55.9496 19.5302 56.0525 20.1524 56.1578 20.7746C56.2703 21.4399 56.39 22.1028 56.5 22.7681C56.6101 23.4191 56.713 24.07 56.8183 24.7233C56.8375 24.843 56.8542 24.9627 56.8782 25.1182L56.883 25.123Z" fill="white" fill-opacity="0.64"/>
<path d="M71.395 7.56695C71.4907 7.55977 71.541 7.55259 71.5912 7.55259C72.6394 7.55259 73.6877 7.55259 74.7359 7.55259C75.0853 7.55259 75.09 7.55737 75.09 7.91396C75.09 10.6781 75.0853 13.4422 75.09 16.2063C75.0924 17.1109 75.0996 18.0155 75.1571 18.9177C75.2097 19.7122 75.4059 20.4781 75.8798 21.1434C76.4877 21.9953 77.3348 22.4237 78.3639 22.4907C78.7707 22.517 79.1824 22.5146 79.5916 22.4907C81.073 22.3998 82.1236 21.409 82.5208 20.1957C82.7195 19.5854 82.796 18.9656 82.8032 18.3314C82.82 16.6729 82.8367 15.0145 82.8415 13.356C82.8463 11.4965 82.8415 9.63703 82.8415 7.77754C82.8415 7.71532 82.8487 7.65071 82.8511 7.59327C83.0282 7.53823 86.2565 7.53344 86.5102 7.59327C86.515 7.67703 86.5246 7.76797 86.5246 7.85891C86.5246 10.7307 86.5246 13.6025 86.5222 16.4743C86.5222 17.221 86.5222 17.9676 86.5102 18.7143C86.503 19.2671 86.4289 19.8175 86.3116 20.356C86.2206 20.7748 86.1249 21.196 85.9933 21.6052C85.7013 22.5146 85.2466 23.3283 84.5287 23.9745C84.0596 24.3957 83.5283 24.7187 82.9492 24.9628C82.1212 25.3099 81.2524 25.5013 80.3622 25.5755C79.6562 25.6329 78.9478 25.6688 78.2347 25.6234C77.5359 25.5779 76.849 25.5061 76.1694 25.3434C75.2384 25.1208 74.3673 24.7618 73.6159 24.154C73.0559 23.7016 72.6203 23.1464 72.2972 22.5027C71.8712 21.6531 71.6511 20.7461 71.5171 19.808C71.4309 19.2169 71.3974 18.6234 71.3974 18.0275C71.3974 14.7321 71.3974 11.4367 71.3974 8.14131C71.3974 7.95703 71.3974 7.77276 71.3974 7.57173L71.395 7.56695Z" fill="white" fill-opacity="0.64"/>
<path d="M69.8872 11.7907C69.8274 11.762 69.7939 11.75 69.7675 11.7308C69.0017 11.1349 68.1306 10.7903 67.1733 10.6587C66.4195 10.5534 65.668 10.5702 64.9309 10.7664C63.4041 11.1732 62.2171 12.0348 61.4369 13.4276C61.1689 13.9062 60.9774 14.416 60.8482 14.9449C60.8075 15.11 60.7956 15.2847 60.7812 15.457C60.7238 16.096 60.7238 16.7349 60.798 17.3691C60.8913 18.1541 61.1952 18.8649 61.6164 19.5254C62.3272 20.6382 63.3323 21.3801 64.5744 21.8084C64.9477 21.9377 65.3354 22.0143 65.7327 22.0358C65.7757 22.0358 65.8188 22.0382 65.8619 22.043C66.5942 22.1315 67.3097 22.0262 68.0062 21.8228C68.5949 21.6529 69.1381 21.3705 69.6431 21.0235C69.6957 20.9876 69.7508 20.9517 69.8058 20.9206C69.8226 20.911 69.8465 20.9134 69.8968 20.9038C69.9015 20.9828 69.9135 21.057 69.9135 21.1312C69.9135 22.1722 69.9159 23.2132 69.9183 24.2543C69.9183 24.3979 69.9135 24.5414 69.9183 24.685C69.9231 24.8214 69.8609 24.8908 69.734 24.9363C68.8318 25.2546 67.908 25.4939 66.9556 25.5896C65.3521 25.7524 63.8109 25.5083 62.332 24.8621C60.6113 24.1083 59.2568 22.9308 58.2445 21.3561C57.7299 20.5544 57.3327 19.6977 57.0909 18.7763C56.9019 18.0464 56.7679 17.3045 56.7894 16.5435C56.7942 16.364 56.7918 16.1845 56.7894 16.005C56.7703 15.2512 56.9019 14.5165 57.0933 13.7937C57.3183 12.949 57.6725 12.1592 58.132 11.4173C59.1826 9.71826 60.6472 8.51211 62.4803 7.74151C63.1576 7.45673 63.8612 7.26049 64.5887 7.14801C66.1658 6.9063 67.707 7.06185 69.2171 7.56442C69.3463 7.60749 69.478 7.64578 69.6048 7.69365C69.8992 7.80134 69.9111 7.82049 69.9183 8.12681C69.9183 8.22014 69.9207 8.31348 69.9207 8.40681C69.9207 9.44784 69.9183 10.4888 69.9135 11.5298C69.9135 11.6112 69.8968 11.6926 69.8872 11.7955V11.7907Z" fill="white" fill-opacity="0.64"/>
<path d="M33.5519 25.1279C33.437 25.1327 33.3221 25.1423 33.2097 25.1423C30.2302 25.1423 27.2531 25.1375 24.2736 25.1351C24.252 25.1351 24.2305 25.1351 24.209 25.1351C24.0079 25.1303 23.9912 25.116 23.9912 24.9078C23.9912 23.9888 23.9912 23.0698 23.9912 22.1508C23.9912 17.4076 23.9936 12.662 23.996 7.91876C23.996 7.81107 23.996 7.70577 23.996 7.57414C24.0702 7.56457 24.13 7.55261 24.1922 7.55261C25.262 7.55261 26.3317 7.55261 27.4015 7.55261C27.691 7.55261 27.6886 7.55739 27.6886 7.83739C27.6862 11.3625 27.6815 14.8852 27.6791 18.4103C27.6791 19.5806 27.6886 20.7508 27.6934 21.9211C27.6934 22.1389 27.7078 22.1532 27.9495 22.1532C29.7013 22.1532 31.4531 22.1485 33.2025 22.1485C33.4179 22.1485 33.6332 22.1532 33.8486 22.1676C33.9755 22.1748 33.9994 22.2107 33.9803 22.3351C33.851 23.2373 33.7194 24.1372 33.5878 25.037C33.5854 25.0561 33.571 25.0753 33.5495 25.1255L33.5519 25.1279Z" fill="white" fill-opacity="0.64"/>
<path d="M3.2186 24.0724C3.29279 24.0653 3.36698 24.0677 3.43638 24.0533C3.7092 23.9935 3.98681 23.9863 4.26442 23.9695C4.88185 23.9313 5.49689 23.9504 6.10954 24.0078C6.89689 24.082 7.67467 24.2232 8.43091 24.4554C9.07467 24.654 9.71365 24.8766 10.3526 25.0895C11.1495 25.3552 11.9536 25.5897 12.7841 25.7261C12.93 25.7501 13.0784 25.762 13.2268 25.7788C13.4398 25.8003 13.6504 25.8242 13.8634 25.8386C13.9806 25.8458 14.1027 25.8386 14.22 25.8314C14.4234 25.8147 14.6244 25.7883 14.8278 25.7716C15.2658 25.7381 15.6894 25.628 16.1106 25.5203C16.3116 25.4701 16.5126 25.4102 16.7136 25.3576C16.7447 25.3504 16.7759 25.3528 16.8094 25.3528L16.8381 25.3935C16.8141 25.403 16.7878 25.4054 16.7687 25.4198C16.5054 25.6328 16.2183 25.8099 15.9 25.9319C15.1988 26.2 14.4688 26.346 13.7222 26.3795C13.009 26.4106 12.2911 26.4273 11.5803 26.3292C10.9748 26.2478 10.3741 26.1449 9.77108 26.054C9.16323 25.9607 8.55775 25.853 7.94749 25.7764C6.9663 25.6543 5.98031 25.5921 4.98954 25.6711C4.58749 25.7022 4.19501 25.7883 3.80971 25.9104C3.27365 26.0803 2.78783 26.3436 2.35467 26.7025C2.34031 26.7145 2.32117 26.7217 2.28527 26.7384C2.26134 26.7049 2.23262 26.6738 2.21348 26.6355C2.00048 26.2095 1.82818 25.7644 1.67741 25.3121C1.46442 24.6707 1.29211 24.0174 1.16288 23.3545C1.07194 22.8926 1.01211 22.4236 0.945105 21.9569C0.856558 21.3371 0.811088 20.7124 0.794336 20.0878C0.777584 19.4321 0.77519 18.7764 0.82784 18.123C0.882883 17.4242 0.935532 16.7278 1.05279 16.0362C1.15091 15.4547 1.25621 14.8731 1.37587 14.294C1.541 13.4923 1.76356 12.7025 2.00288 11.92C2.34031 10.8215 2.73997 9.7494 3.19467 8.69641C3.61348 7.72 4.07057 6.76274 4.57313 5.82462C5.06134 4.91043 5.58065 4.0106 6.12869 3.12991C6.6863 2.23726 7.27023 1.36137 7.88766 0.509406C7.94989 0.425645 8.00732 0.339491 8.06954 0.255731C8.09108 0.227013 8.11262 0.203081 8.13895 0.179149C8.18442 0.140859 8.22989 0.145645 8.27296 0.186329C8.31125 0.222226 8.31125 0.26291 8.28253 0.305987C8.21074 0.413679 8.13894 0.521371 8.06954 0.629064C7.59809 1.36615 7.14578 2.11282 6.75091 2.8906C6.51159 3.36444 6.27228 3.8359 6.04253 4.31453C5.83912 4.73812 5.64527 5.16889 5.4586 5.59966C5.31501 5.93231 5.18818 6.26974 5.05655 6.60718C4.92253 6.95419 4.78852 7.3012 4.66407 7.6506C4.55638 7.94974 4.45587 8.25128 4.36014 8.55282C4.25006 8.89744 4.14476 9.24444 4.04185 9.59145C3.96288 9.85709 3.89108 10.1251 3.82168 10.3955C3.74271 10.7018 3.66373 11.0106 3.59194 11.3193C3.51296 11.6663 3.44117 12.0181 3.36698 12.3675C3.31912 12.5948 3.27604 12.8246 3.23296 13.0543C3.19228 13.2793 3.1492 13.5042 3.1157 13.7292C3.05348 14.1504 2.98647 14.574 2.941 14.9976C2.87638 15.5935 2.83809 16.1942 2.78783 16.7924C2.70407 17.7952 2.72322 18.7955 2.73997 19.7983C2.74476 20.0663 2.77108 20.3319 2.78544 20.6C2.80459 20.9159 2.81416 21.2366 2.84766 21.5501C2.91706 22.1507 2.99843 22.7514 3.0798 23.3521C3.10852 23.5627 3.14681 23.7733 3.18031 23.9839C3.1851 24.0078 3.19228 24.0294 3.20424 24.0701L3.2186 24.0724Z" fill="white" fill-opacity="0.64"/>
<path d="M10.7665 13.813C10.6205 13.6383 7.48306 7.65542 7.44238 7.46397C8.02392 8.14841 8.58392 8.852 9.15588 9.54602C9.72546 10.2377 10.2855 10.9365 10.8814 11.6257C10.9292 11.573 10.9604 11.5419 10.9843 11.5084C11.9104 10.2018 12.9419 8.98123 13.9877 7.77269C14.0882 7.65542 14.1863 7.53816 14.2869 7.42089C14.3898 7.29884 14.4161 7.29406 14.5429 7.38978C14.9689 7.71047 15.347 8.0838 15.6988 8.48106C16.6202 9.52927 17.3405 10.7067 17.934 11.9655C18.4055 12.9683 18.7788 14.0093 19.0851 15.0742C19.3005 15.8185 19.4824 16.57 19.626 17.331C19.7457 17.97 19.8462 18.6113 19.9323 19.2551C20.0089 19.8103 20.0472 20.3703 20.1142 20.9279C20.1621 21.3324 20.1597 21.7416 20.1884 22.146C20.2506 22.9741 20.2674 23.8021 20.2554 24.6301C20.2482 25.1662 20.2219 25.7023 20.2028 26.2383C20.186 26.6739 20.1692 27.1118 20.1453 27.5474C20.1357 27.7197 20.107 27.892 20.0879 28.0643C20.0807 28.1242 20.052 28.1553 19.9945 28.1577C19.9491 28.1577 19.906 28.16 19.8605 28.1577C19.8079 28.1553 19.7792 28.1242 19.7768 28.0715C19.7744 28.0308 19.7696 27.9925 19.7696 27.9518C19.7576 27.6096 19.7528 27.2674 19.7337 26.9252C19.7122 26.5327 19.6834 26.1426 19.6499 25.7525C19.5973 25.1542 19.5446 24.5559 19.4776 23.96C19.401 23.29 19.3149 22.6199 19.2239 21.9522C19.1522 21.4257 19.0804 20.8992 18.9822 20.3775C18.8243 19.5351 18.6544 18.6927 18.4701 17.8551C18.3074 17.1228 18.1039 16.4024 17.8814 15.6869C17.6851 15.0575 17.4674 14.4353 17.2161 13.825C16.8308 12.8869 16.3761 11.9847 15.7898 11.1542C15.3398 10.5177 14.8253 9.94329 14.1959 9.47901C14.0547 9.37371 14.0332 9.37611 13.9135 9.51012C13.2147 10.2855 12.5686 11.1016 11.9727 11.9583C11.5802 12.5207 11.2116 13.0951 10.8646 13.6862C10.8407 13.7269 10.8072 13.7628 10.7689 13.8106L10.7665 13.813Z" fill="white" fill-opacity="0.64"/>
</g>
</g>
</g>
</g>
</g>
<defs>
<clipPath id="clip0_20001_292">
<rect width="88" height="30" fill="white" transform="translate(-0.00976562 0.160034)"/>
</clipPath>
<clipPath id="clip1_20001_292">
<rect width="88" height="30" fill="white" transform="translate(-0.00976562 0.160034)"/>
</clipPath>
<clipPath id="clip2_20001_292">
<rect width="88" height="30" fill="white" transform="translate(-0.00976562 0.160034)"/>
</clipPath>
</defs>
</svg>
