<svg width="87" height="31" viewBox="0 0 87 31" fill="none" xmlns="http://www.w3.org/2000/svg">
<g clip-path="url(#clip0_20001_309)">
<g clip-path="url(#clip1_20001_309)">
<g clip-path="url(#clip2_20001_309)">
<mask id="mask0_20001_309" style="mask-type:luminance" maskUnits="userSpaceOnUse" x="0" y="0" width="87" height="31">
<path d="M86.7358 0.160034H0.73584V30.16H86.7358V0.160034Z" fill="white"/>
</mask>
<g mask="url(#mask0_20001_309)">
<mask id="mask1_20001_309" style="mask-type:alpha" maskUnits="userSpaceOnUse" x="73" y="7" width="14" height="17">
<path d="M73.8843 7.26111H86.6122V23.1778H73.8843V7.26111Z" fill="white"/>
</mask>
<g mask="url(#mask1_20001_309)">
<path fill-rule="evenodd" clip-rule="evenodd" d="M82.5746 14.0091L79.8825 13.0711C78.1564 12.436 77.4541 11.7397 77.4541 10.3477C77.4541 8.92575 78.2737 7.8363 80.0288 7.8363C80.7309 7.8363 81.4336 8.10891 81.7548 8.59322L85.4088 13.2781H86.0272V8.95591L84.0377 8.07875C82.7792 7.59443 81.3163 7.26111 79.8825 7.26111C76.9859 7.26111 73.8843 8.50196 73.8843 11.8911C73.8843 14.3724 75.4932 15.6738 77.9517 16.5511L80.6726 17.489C81.8431 17.9124 82.8969 18.6695 82.8969 20.2427C82.8969 21.574 82.1355 22.5425 80.1753 22.5425C79.6489 22.5425 78.8293 22.3911 78.2148 21.6349L74.5594 16.8566H73.9717V21.397L75.9035 22.2699C77.2197 22.845 78.5949 23.178 80.3796 23.178C83.1887 23.178 86.6122 22.2699 86.6122 18.6088C86.6122 16.0668 84.9156 14.8869 82.5746 14.0091Z" fill="white" fill-opacity="0.64"/>
</g>
<path fill-rule="evenodd" clip-rule="evenodd" d="M55.9202 13.4944L49.8047 22.7841H48.371L43.3608 7.65466H48.2629L51.6773 18.7292H51.8532L55.2765 13.5245C56.0667 12.2539 56.0078 11.8605 55.8615 11.5881L53.9013 8.25961V7.65466H57.7345C58.0269 8.95523 57.9979 10.3175 55.9202 13.4944Z" fill="white" fill-opacity="0.64"/>
<path fill-rule="evenodd" clip-rule="evenodd" d="M37.7522 22.3233C35.4628 23.047 33.6315 21.4209 32.128 16.3355C30.5987 11.1622 31.2638 8.84291 33.5528 8.11909C35.8419 7.39546 37.6476 8.93339 39.1769 14.1067C40.6802 19.1926 40.0415 21.5999 37.7522 22.3233ZM35.6536 7.26111C31.1179 7.26111 27.4312 10.5293 27.4312 15.2196C27.4312 19.9098 31.1179 23.1774 35.6536 23.1774C40.1884 23.1774 43.8457 19.9098 43.8457 15.2196C43.8457 10.5293 40.1884 7.26111 35.6536 7.26111Z" fill="white" fill-opacity="0.64"/>
<mask id="mask2_20001_309" style="mask-type:alpha" maskUnits="userSpaceOnUse" x="0" y="7" width="27" height="16">
<path d="M0.73584 7.26111H26.1334V22.7837H0.73584V7.26111Z" fill="white"/>
</mask>
<g mask="url(#mask2_20001_309)">
<path fill-rule="evenodd" clip-rule="evenodd" d="M26.1337 22.1788V22.7837H21.9788V22.1788V20.8475V12.9193C21.9788 10.7104 21.1598 9.56125 19.5503 9.56125C17.5898 9.56125 16.6241 11.4368 16.6241 13.6758V20.8475V22.1788V22.7837H12.4692V22.1788V20.8475V12.7981C12.4692 10.6804 11.7085 9.56125 10.0993 9.56125C8.16816 9.56125 7.11454 11.4977 7.11454 13.8877V20.8475V22.1788V22.7837H2.9598V22.1788V20.8475V9.59102L0.73584 8.25951V7.65456H7.11454V11.6487C7.72929 9.07655 9.3383 7.26111 12.1182 7.26111C14.4879 7.26111 16.1558 8.56247 16.5362 11.3463C17.2095 8.92517 18.8185 7.26111 21.5397 7.26111C24.349 7.26111 26.1337 9.046 26.1337 12.8284V20.8475V22.1788Z" fill="white" fill-opacity="0.64"/>
</g>
<mask id="mask3_20001_309" style="mask-type:alpha" maskUnits="userSpaceOnUse" x="57" y="7" width="16" height="17">
<path d="M57.2827 7.16003H72.9112V23.1776H57.2827V7.16003Z" fill="white"/>
</mask>
<g mask="url(#mask3_20001_309)">
<path fill-rule="evenodd" clip-rule="evenodd" d="M63.4987 7.99225C65.7649 7.32502 67.4225 8.65419 68.6896 13.0042C68.6275 13.3081 68.4186 13.6446 67.0273 14.0734L65.4691 14.5264L61.7338 15.5608C60.6257 11.1689 61.3037 8.63813 63.4987 7.99225ZM72.1983 16.8559C71.5385 18.6142 70.3245 19.6741 68.7233 20.1178C65.5859 20.987 62.7893 18.934 61.8853 16.146L72.9041 13.0768C71.6771 8.34163 67.6943 6.29686 63.3696 7.49521C59.0459 8.69355 56.3871 12.814 57.5606 17.3438C58.7349 21.8741 63.2012 24.0601 67.5823 22.8459C70.5152 22.0328 72.3839 19.8844 72.9113 16.8559H72.1983Z" fill="white" fill-opacity="0.64"/>
</g>
</g>
</g>
</g>
</g>
<defs>
<clipPath id="clip0_20001_309">
<rect width="87" height="30" fill="white" transform="translate(-0.00976562 0.160034)"/>
</clipPath>
<clipPath id="clip1_20001_309">
<rect width="87" height="30" fill="white" transform="translate(-0.00976562 0.160034)"/>
</clipPath>
<clipPath id="clip2_20001_309">
<rect width="87" height="30" fill="white" transform="translate(-0.00976562 0.160034)"/>
</clipPath>
</defs>
</svg>
