<svg width="83" height="31" viewBox="0 0 83 31" fill="none" xmlns="http://www.w3.org/2000/svg">
<g clip-path="url(#clip0_20001_275)">
<g clip-path="url(#clip1_20001_275)">
<g clip-path="url(#clip2_20001_275)">
<mask id="mask0_20001_275" style="mask-type:luminance" maskUnits="userSpaceOnUse" x="0" y="0" width="83" height="31">
<path d="M82.8633 0.160034H0.863281V30.16H82.8633V0.160034Z" fill="white"/>
</mask>
<g mask="url(#mask0_20001_275)">
<mask id="mask1_20001_275" style="mask-type:luminance" maskUnits="userSpaceOnUse" x="0" y="0" width="83" height="31">
<path d="M82.6815 0.160034H0.863281V30.16H82.6815V0.160034Z" fill="white"/>
</mask>
<g mask="url(#mask1_20001_275)">
<path d="M37.3372 8.745C33.2389 8.745 30.1885 11.8702 30.1885 16.0247C30.1885 20.1605 33.2763 23.3045 37.3372 23.3045C40.1819 23.3045 42.5772 21.7887 43.775 19.3559L40.238 18.4202C39.6579 19.3745 38.6099 19.9735 37.3372 19.9735C35.522 19.9735 34.2869 18.9442 33.9687 17.054H44.4112C44.4487 16.6985 44.486 16.3242 44.486 15.9686C44.486 12.0199 41.5854 8.745 37.3372 8.745ZM34.0623 14.5276C34.4927 12.8995 35.6717 11.9264 37.3372 11.9264C39.0029 11.9264 40.2192 12.8434 40.7432 14.5276H34.0623Z" fill="white" fill-opacity="0.64"/>
<path d="M16.0596 22.9303H19.7837V15.6879C19.7837 13.4422 21.0189 12.0948 22.8716 12.0948C24.5559 12.0948 25.2857 13.1241 25.2857 15.1826V22.9303H29.0098V14.5464C29.0098 11.0281 27.0635 8.80114 23.9382 8.80114C22.2914 8.80114 20.813 9.4187 19.765 10.4105V4.16003H16.0596" fill="white" fill-opacity="0.64"/>
<path d="M72.7814 9.13799H68.4771L64.3413 15.2575V4.16003H60.6172V22.9303H64.3413V16.3242L68.7578 22.9303H73.2679L68.1028 15.7066L72.7814 9.13799Z" fill="white" fill-opacity="0.64"/>
<path d="M81.446 9.06335C79.6681 9.06335 78.4329 9.60606 77.4411 10.8224L76.7861 9.13821H74.3906V22.9305H78.1336V15.763C78.1336 13.5173 78.9569 12.5816 81.0716 12.5816H82.6811V9.06335H81.446Z" fill="white" fill-opacity="0.64"/>
<path d="M8.19922 19.8237C6.19681 19.8237 4.66225 18.1582 4.66225 16.0247C4.66225 13.8914 6.1781 12.2632 8.19922 12.2632C9.60278 12.2632 10.8567 12.9931 11.4742 14.3218L14.8802 13.1428C13.8135 10.4479 11.3058 8.745 8.23665 8.745C4.02597 8.745 0.863281 11.8515 0.863281 15.9874C0.863281 20.1232 4.04468 23.3233 8.18051 23.3233C11.3058 23.3233 13.8883 21.5455 14.9176 18.757L11.4555 17.5594C10.9315 18.9629 9.64021 19.8237 8.19922 19.8237Z" fill="white" fill-opacity="0.64"/>
<path d="M52.7392 19.8237C50.7367 19.8237 49.2022 18.1582 49.2022 16.0247C49.2022 13.8914 50.718 12.2632 52.7392 12.2632C54.1427 12.2632 55.3965 12.9931 56.0141 14.3218L59.4201 13.1428C58.3534 10.4479 55.8457 8.745 52.7765 8.745C48.5846 8.745 45.4219 11.8515 45.4219 15.9874C45.4219 20.1232 48.6034 23.3233 52.7392 23.3233C55.8644 23.3233 58.447 21.5455 59.4763 18.757L56.0141 17.5594C55.4901 18.9629 54.1802 19.8237 52.7392 19.8237Z" fill="white" fill-opacity="0.64"/>
</g>
</g>
</g>
</g>
</g>
<defs>
<clipPath id="clip0_20001_275">
<rect width="83" height="30" fill="white" transform="translate(-0.00976562 0.160034)"/>
</clipPath>
<clipPath id="clip1_20001_275">
<rect width="83" height="30" fill="white" transform="translate(-0.00976562 0.160034)"/>
</clipPath>
<clipPath id="clip2_20001_275">
<rect width="83" height="30" fill="white" transform="translate(-0.00976562 0.160034)"/>
</clipPath>
</defs>
</svg>
