<svg width="118" height="31" viewBox="0 0 118 31" fill="none" xmlns="http://www.w3.org/2000/svg">
<g clip-path="url(#clip0_20001_346)">
<g clip-path="url(#clip1_20001_346)">
<g clip-path="url(#clip2_20001_346)">
<mask id="mask0_20001_346" style="mask-type:luminance" maskUnits="userSpaceOnUse" x="0" y="0" width="118" height="31">
<path d="M117.427 0.160034H0.426758V30.16H117.427V0.160034Z" fill="white"/>
</mask>
<g mask="url(#mask0_20001_346)">
<path d="M35.8157 10.0424V16.8359C35.8157 18.653 34.3194 20.1266 32.4745 20.1266C30.6295 20.1266 29.1333 18.653 29.1333 16.8359V10.0424H26.6133V16.7346C26.6133 19.9224 29.2377 22.5072 32.4745 22.5072C35.7112 22.5072 38.3357 19.9224 38.3357 16.7346V10.0424H35.8157Z" fill="white" fill-opacity="0.64"/>
<path d="M12.1711 2.18738V17.9999C12.1711 21.9839 8.89257 25.2129 4.84743 25.2129C4.32351 25.2129 3.81405 25.1575 3.32227 25.0546C5.19778 26.9682 7.82862 28.1601 10.7424 28.1601C16.4396 28.1601 21.0569 23.6111 21.0569 18.0015V2.18738H12.1711Z" fill="white" fill-opacity="0.64"/>
<path d="M4.84796 22.3759C2.40513 22.3759 0.426758 20.4258 0.426758 18.0199V4.98523H9.27074V18.0199C9.27074 20.4258 7.2908 22.3759 4.84796 22.3759Z" fill="white" fill-opacity="0.64"/>
<path d="M52.975 16.0826C52.975 19.9036 50.1079 22.4583 46.8953 22.4583C45.0423 22.4583 43.5107 21.8252 42.4468 20.7298V26.4645H39.877V10.0473H42.4468V11.4338C43.5091 10.3385 45.0407 9.70544 46.8953 9.70544C50.1079 9.70544 52.975 12.2854 52.975 16.0811M50.4792 16.0811C50.4792 13.5501 48.7242 11.9435 46.4758 11.9435C44.4492 11.9435 42.4484 13.5501 42.4484 16.0811C42.4484 18.612 44.4492 20.2186 46.4758 20.2186C48.7242 20.2186 50.4792 18.6374 50.4792 16.0811Z" fill="white" fill-opacity="0.64"/>
<path d="M76.7997 9.99824L76.6264 12.4326C76.4289 12.4089 76.133 12.4089 75.9096 12.4089C72.7964 12.4089 71.2637 14.5504 71.2637 17.8602V22.1196H68.6934V10.0473H71.2637V12.6273C72.2516 11.0207 73.8091 9.90173 75.9337 9.90173C76.2308 9.90173 76.4772 9.90173 76.7985 9.99985" fill="white" fill-opacity="0.64"/>
<path d="M89.9118 22.1178H87.3421V20.7312C86.2799 21.8265 84.7465 22.4597 82.8937 22.4597C79.6809 22.4597 76.8154 19.905 76.8154 16.084C76.8154 12.2631 79.6809 9.70837 82.8937 9.70837C84.7465 9.70837 86.2799 10.3415 87.3421 11.4368V10.0503H89.9118V22.1178ZM87.3421 16.0825C87.3421 13.5515 85.3414 11.9449 83.3147 11.9449C81.0663 11.9449 79.3113 13.5515 79.3113 16.0825C79.3113 18.6134 81.0663 20.22 83.3147 20.22C85.3414 20.22 87.3421 18.6387 87.3421 16.0825Z" fill="white" fill-opacity="0.64"/>
<path d="M114.516 18.6678C113.65 19.9546 112.416 20.2696 111.199 20.2696C109.396 20.2696 107.739 18.9306 107.493 16.6924H117.427V15.8156C117.303 12.1893 114.585 9.7074 111.299 9.7074C107.838 9.7074 104.948 12.2621 104.948 16.1084C104.948 19.9546 107.863 22.4603 111.199 22.4603C113.915 22.4603 116.09 21.1956 117.104 18.6678H114.518H114.516ZM111.297 11.9471C112.976 11.9471 114.386 12.9206 114.781 14.8911H107.565C107.96 12.9443 109.69 11.9471 111.297 11.9471Z" fill="white" fill-opacity="0.64"/>
<path d="M101.441 2.16003V11.0856C100.33 10.2705 98.9315 9.81149 97.421 9.81149C93.8275 9.81149 90.8945 12.3756 90.8945 16.1381C90.8945 19.9005 93.8275 22.4884 97.421 22.4884C101.015 22.4884 103.777 20.0413 103.935 16.4467H103.942V2.16003H101.441ZM97.421 20.2882C95.2946 20.2882 93.3867 18.6516 93.3867 16.1364C93.3867 13.6213 95.2928 11.9847 97.421 11.9847C99.5487 11.9847 101.43 13.6213 101.43 16.1364C101.43 18.6516 99.4991 20.2882 97.421 20.2882Z" fill="white" fill-opacity="0.64"/>
<path d="M64.5699 10.0473V11.4338C63.5076 10.3385 61.9742 9.70544 60.1212 9.70544C56.9085 9.70544 54.043 12.2854 54.043 16.0811C54.043 19.8767 56.9102 22.4567 60.1212 22.4567C61.9742 22.4567 63.5076 21.8236 64.5699 20.7283V21.0243C64.5699 23.2624 63.112 25.1729 60.7881 25.1729C58.4642 25.1729 57.6157 24.2184 56.7012 22.8065L54.7261 24.095C55.7144 25.8962 57.2074 27.4617 60.7881 27.4617C64.6181 27.4617 67.1395 24.592 67.1395 21.0749V10.0473H64.5699ZM60.5423 20.2202C58.2938 20.2202 56.5389 18.6389 56.5389 16.0826C56.5389 13.5264 58.2938 11.9451 60.5423 11.9451C62.5691 11.9451 64.5699 13.5517 64.5699 16.0826C64.5699 18.6136 62.5673 20.2202 60.5423 20.2202Z" fill="white" fill-opacity="0.64"/>
</g>
</g>
</g>
</g>
<defs>
<clipPath id="clip0_20001_346">
<rect width="118" height="30" fill="white" transform="translate(-0.00976562 0.160034)"/>
</clipPath>
<clipPath id="clip1_20001_346">
<rect width="118" height="30" fill="white" transform="translate(-0.00976562 0.160034)"/>
</clipPath>
<clipPath id="clip2_20001_346">
<rect width="118" height="30" fill="white" transform="translate(-0.00976562 0.160034)"/>
</clipPath>
</defs>
</svg>
