<svg width="520" height="376" viewBox="0 0 520 376" fill="none" xmlns="http://www.w3.org/2000/svg">
<path d="M339.791 206.057H176.409L0 29.1055H519.457L339.791 206.057Z" fill="url(#paint0_linear_323_107)" fill-opacity="0.16"/>
<path d="M339.503 372.698L388.643 326.655V159.922L339.503 205.964V326.656V372.698Z" fill="url(#paint1_linear_323_107)" fill-opacity="0.06"/>
<path d="M225.006 326.656L175.866 372.698V205.964L225.006 159.922V205.964V326.656Z" fill="url(#paint2_linear_323_107)" fill-opacity="0.06"/>
<path d="M225.006 326.656L175.866 372.698H339.503V326.656H225.006Z" fill="url(#paint3_linear_323_107)" fill-opacity="0.06"/>
<path d="M225.006 205.965V326.657H339.503V205.965H225.006Z" fill="url(#paint4_linear_323_107)" fill-opacity="0.06"/>
<path d="M339.503 205.964L388.643 159.922H225.006V205.964H339.503Z" fill="url(#paint5_linear_323_107)" fill-opacity="0.06"/>
<path d="M388.643 326.655L339.503 372.698M388.643 326.655V159.922M388.643 326.655L339.503 326.656M339.503 372.698H175.866M339.503 372.698V326.656M388.643 159.922L339.503 205.964M388.643 159.922H225.006M339.503 326.656H225.006M339.503 326.656V205.964M175.866 372.698L225.006 326.656M175.866 372.698V205.964M225.006 326.656V205.964M175.866 205.964L225.006 159.922M175.866 205.964H225.006M225.006 205.964H339.503M225.006 205.964V159.922" stroke="white" stroke-opacity="0.24" stroke-width="1.2" stroke-linejoin="round"/>
<path d="M225.006 326.654L175.866 372.696H339.503V326.654H225.006Z" fill="url(#paint6_linear_323_107)" fill-opacity="0.16"/>
<path d="M339.503 205.964L388.643 159.922H225.006V205.964H339.503Z" fill="url(#paint7_linear_323_107)" fill-opacity="0.16"/>
<path d="M225.006 159.922L175.866 205.964H225.006V159.922Z" fill="url(#paint8_linear_323_107)" fill-opacity="0.16"/>
<path d="M339.503 372.697L388.643 326.654L339.503 326.655V372.697Z" fill="url(#paint9_linear_323_107)" fill-opacity="0.16"/>
<path d="M221.806 326.657C221.806 328.424 223.239 329.857 225.006 329.857C226.774 329.857 228.206 328.424 228.206 326.657C228.206 324.89 226.774 323.457 225.006 323.457C223.239 323.457 221.806 324.89 221.806 326.657ZM385.443 326.657C385.443 328.424 386.876 329.857 388.643 329.857C390.411 329.857 391.843 328.424 391.843 326.657C391.843 324.89 390.411 323.457 388.643 323.457C386.876 323.457 385.443 324.89 385.443 326.657ZM225.006 327.257H388.643V326.057H225.006V327.257Z" fill="white" fill-opacity="0.64"/>
<path d="M221.806 159.921C221.806 161.688 223.239 163.121 225.006 163.121C226.774 163.121 228.206 161.688 228.206 159.921C228.206 158.153 226.774 156.721 225.006 156.721C223.239 156.721 221.806 158.153 221.806 159.921ZM385.443 159.921C385.443 161.688 386.876 163.121 388.643 163.121C390.411 163.121 391.843 161.688 391.843 159.921C391.843 158.153 390.411 156.721 388.643 156.721C386.876 156.721 385.443 158.153 385.443 159.921ZM225.006 160.521H388.643V159.321H225.006V160.521Z" fill="white" fill-opacity="0.64"/>
<path d="M336.303 372.698C336.303 374.465 337.736 375.898 339.503 375.898C341.271 375.898 342.703 374.465 342.703 372.698C342.703 370.931 341.271 369.498 339.503 369.498C337.736 369.498 336.303 370.931 336.303 372.698ZM172.666 372.698C172.666 374.465 174.099 375.898 175.866 375.898C177.634 375.898 179.066 374.465 179.066 372.698C179.066 370.931 177.634 369.498 175.866 369.498C174.099 369.498 172.666 370.931 172.666 372.698ZM339.503 372.098H175.866V373.298H339.503V372.098Z" fill="white" fill-opacity="0.64"/>
<path d="M336.303 205.962C336.303 207.729 337.736 209.162 339.503 209.162C341.271 209.162 342.703 207.729 342.703 205.962C342.703 204.194 341.271 202.762 339.503 202.762C337.736 202.762 336.303 204.194 336.303 205.962ZM172.666 205.962C172.666 207.729 174.099 209.162 175.866 209.162C177.634 209.162 179.066 207.729 179.066 205.962C179.066 204.194 177.634 202.762 175.866 202.762C174.099 202.762 172.666 204.194 172.666 205.962ZM339.503 205.362H175.866V206.562H339.503V205.362Z" fill="white" fill-opacity="0.64"/>
<g filter="url(#filter0_f_323_107)">
<path d="M442.167 127.227C444.106 121.107 429.642 111.066 409.862 104.801C390.082 98.5348 372.475 98.4178 370.536 104.538L369.356 108.266C369.16 108.883 369.131 109.541 369.258 110.23C370.39 116.374 383.876 125.059 401.661 130.693C419.445 136.326 435.473 136.989 439.935 132.617C440.436 132.127 440.791 131.573 440.987 130.955L442.167 127.227Z" fill="url(#paint10_linear_323_107)" fill-opacity="0.16"/>
<path d="M370.536 104.538C372.475 98.4178 390.082 98.5348 409.862 104.801C429.642 111.066 444.106 121.107 442.167 127.227M370.536 104.538C370.341 105.156 370.312 105.813 370.439 106.503C370.443 106.522 370.447 106.542 370.45 106.562C371.657 112.702 385.114 121.35 402.842 126.965C420.569 132.58 436.551 133.257 441.073 128.931C441.087 128.918 441.101 128.904 441.116 128.89C441.617 128.399 441.972 127.845 442.167 127.227M370.536 104.538L369.356 108.266C369.16 108.883 369.131 109.541 369.258 110.23C370.39 116.374 383.876 125.059 401.661 130.693C419.445 136.326 435.473 136.989 439.935 132.617C440.436 132.127 440.791 131.573 440.987 130.955L442.167 127.227" stroke="white" stroke-opacity="0.16" stroke-width="0.587832" stroke-linejoin="round"/>
<path d="M441.116 128.889C441.616 128.398 441.972 127.844 442.167 127.226L440.986 130.954C440.791 131.572 440.436 132.126 439.935 132.616C435.473 136.988 419.445 136.325 401.661 130.691C383.876 125.058 370.39 116.373 369.258 110.229C369.131 109.54 369.16 108.882 369.356 108.265L370.536 104.537C370.341 105.155 370.312 105.812 370.439 106.502C370.443 106.521 370.446 106.541 370.45 106.561C371.657 112.701 385.114 121.349 402.841 126.964C420.569 132.579 436.551 133.256 441.073 128.93C441.087 128.917 441.101 128.903 441.116 128.889Z" fill="url(#paint11_linear_323_107)" fill-opacity="0.16" stroke="white" stroke-opacity="0.16" stroke-width="0.587832" stroke-linejoin="round"/>
<path d="M409.862 104.801C429.642 111.066 444.106 121.107 442.167 127.227C441.972 127.845 441.617 128.399 441.116 128.89C441.101 128.904 441.087 128.918 441.073 128.931C436.551 133.257 420.569 132.58 402.842 126.965C385.114 121.35 371.657 112.702 370.45 106.562C370.447 106.542 370.443 106.522 370.439 106.503C370.312 105.813 370.341 105.156 370.536 104.538C372.475 98.4178 390.082 98.5348 409.862 104.801Z" fill="url(#paint12_linear_323_107)" fill-opacity="0.16" stroke="white" stroke-opacity="0.16" stroke-width="0.587832" stroke-linejoin="round"/>
</g>
<g filter="url(#filter1_f_323_107)">
<path d="M365.861 24.8348C367.488 19.6978 355.347 11.2688 338.743 6.00979C322.139 0.750793 307.36 0.651792 305.733 5.78979L304.742 8.9188C304.577 9.4368 304.553 9.98879 304.66 10.5678C305.61 15.7248 316.931 23.0148 331.859 27.7438C346.787 32.4728 360.241 33.0298 363.987 29.3598C364.407 28.9478 364.705 28.4828 364.869 27.9638L365.861 24.8348Z" fill="url(#paint13_linear_323_107)" fill-opacity="0.16"/>
<path d="M305.733 5.78979C307.36 0.651792 322.139 0.750793 338.743 6.00979C355.347 11.2688 367.488 19.6978 365.861 24.8348M305.733 5.78979C305.569 6.30779 305.545 6.85979 305.651 7.43879C305.654 7.45479 305.657 7.4718 305.661 7.4878C306.673 12.6428 317.969 19.9018 332.85 24.6148C347.731 29.3288 361.146 29.8968 364.942 26.2658C364.954 26.2538 364.966 26.2428 364.978 26.2308C365.398 25.8188 365.696 25.3538 365.861 24.8348M305.733 5.78979L304.742 8.9188C304.577 9.4368 304.553 9.98879 304.66 10.5678C305.61 15.7248 316.931 23.0148 331.859 27.7438C346.787 32.4728 360.241 33.0298 363.987 29.3598C364.407 28.9478 364.705 28.4828 364.869 27.9638L365.861 24.8348" stroke="white" stroke-opacity="0.16" stroke-width="0.493432" stroke-linejoin="round"/>
<path d="M364.977 26.2301C365.398 25.8181 365.696 25.3531 365.86 24.8351L364.869 27.9641C364.705 28.4821 364.407 28.9471 363.986 29.3591C360.24 33.0291 346.787 32.4721 331.859 27.7431C316.93 23.0151 305.609 15.7241 304.66 10.5671C304.553 9.98806 304.577 9.43607 304.741 8.91807L305.732 5.78906C305.568 6.30706 305.544 6.85906 305.651 7.43806C305.654 7.45506 305.657 7.47107 305.66 7.48807C306.673 12.6421 317.969 19.9011 332.85 24.6141C347.73 29.3281 361.146 29.8961 364.941 26.2651C364.953 26.2541 364.965 26.2421 364.977 26.2301Z" fill="url(#paint14_linear_323_107)" fill-opacity="0.16" stroke="white" stroke-opacity="0.16" stroke-width="0.493432" stroke-linejoin="round"/>
<path d="M338.743 6.00979C355.347 11.2688 367.488 19.6978 365.861 24.8348C365.696 25.3538 365.398 25.8188 364.978 26.2308C364.966 26.2428 364.954 26.2538 364.942 26.2658C361.146 29.8968 347.731 29.3288 332.85 24.6148C317.969 19.9018 306.673 12.6428 305.661 7.4878C305.657 7.4718 305.654 7.45479 305.651 7.43879C305.545 6.85979 305.569 6.30779 305.733 5.78979C307.36 0.651792 322.139 0.750793 338.743 6.00979Z" fill="url(#paint15_linear_323_107)" fill-opacity="0.16" stroke="white" stroke-opacity="0.16" stroke-width="0.493432" stroke-linejoin="round"/>
</g>
<path d="M140.37 104.02C136.362 91.3652 166.266 70.6052 207.164 57.6502C248.061 44.6962 284.465 44.4532 288.473 57.1072L290.915 64.8152C291.319 66.0912 291.378 67.4512 291.116 68.8762C288.776 81.5792 260.892 99.5372 224.121 111.184C187.35 122.831 154.212 124.203 144.986 115.164C143.95 114.149 143.216 113.004 142.811 111.727L140.37 104.02Z" fill="url(#paint16_linear_323_107)" fill-opacity="0.16"/>
<path d="M288.473 57.1072C284.465 44.4532 248.061 44.6962 207.164 57.6502C166.266 70.6052 136.362 91.3652 140.37 104.02M288.473 57.1072C288.878 58.3842 288.937 59.7442 288.674 61.1692C288.667 61.2102 288.659 61.2512 288.651 61.2912C286.156 73.9872 258.333 91.8672 221.68 103.477C185.026 115.087 151.983 116.487 142.633 107.543C142.603 107.514 142.574 107.485 142.544 107.456C141.509 106.442 140.775 105.296 140.37 104.02M288.473 57.1072L290.915 64.8152C291.319 66.0912 291.378 67.4512 291.116 68.8762C288.776 81.5792 260.892 99.5372 224.121 111.184C187.35 122.831 154.212 124.203 144.986 115.164C143.95 114.149 143.216 113.004 142.811 111.727L140.37 104.02" stroke="white" stroke-opacity="0.16" stroke-width="1.21539" stroke-linejoin="round"/>
<path d="M142.544 107.456C141.509 106.442 140.775 105.296 140.37 104.019L142.811 111.726C143.216 113.003 143.95 114.149 144.986 115.163C154.212 124.203 187.35 122.831 224.121 111.184C260.892 99.5364 288.776 81.5794 291.116 68.8764C291.378 67.4514 291.319 66.0914 290.915 64.8144L288.473 57.1074C288.878 58.3844 288.937 59.7434 288.674 61.1694C288.667 61.2104 288.659 61.2504 288.651 61.2914C286.157 73.9874 258.333 91.8664 221.68 103.476C185.026 115.087 151.983 116.487 142.634 107.543C142.604 107.514 142.574 107.485 142.544 107.456Z" fill="url(#paint17_linear_323_107)" fill-opacity="0.16" stroke="white" stroke-opacity="0.16" stroke-width="1.21539" stroke-linejoin="round"/>
<path d="M207.164 57.6502C166.266 70.6052 136.362 91.3652 140.37 104.02C140.775 105.296 141.509 106.442 142.544 107.456C142.574 107.485 142.603 107.514 142.633 107.543C151.983 116.487 185.026 115.087 221.68 103.477C258.333 91.8672 286.156 73.9872 288.651 61.2912C288.659 61.2512 288.667 61.2102 288.674 61.1692C288.937 59.7442 288.878 58.3842 288.473 57.1072C284.465 44.4532 248.061 44.6962 207.164 57.6502Z" fill="url(#paint18_linear_323_107)" fill-opacity="0.16" stroke="white" stroke-opacity="0.16" stroke-width="1.21539" stroke-linejoin="round"/>
<defs>
<filter id="filter0_f_323_107" x="368.236" y="99.0791" width="75.0513" height="37.3359" filterUnits="userSpaceOnUse" color-interpolation-filters="sRGB">
<feFlood flood-opacity="0" result="BackgroundImageFix"/>
<feBlend mode="normal" in="SourceGraphic" in2="BackgroundImageFix" result="shape"/>
<feGaussianBlur stdDeviation="0.325679" result="effect1_foregroundBlur_323_107"/>
</filter>
<filter id="filter1_f_323_107" x="303.046" y="0.451192" width="64.5112" height="32.8515" filterUnits="userSpaceOnUse" color-interpolation-filters="sRGB">
<feFlood flood-opacity="0" result="BackgroundImageFix"/>
<feBlend mode="normal" in="SourceGraphic" in2="BackgroundImageFix" result="shape"/>
<feGaussianBlur stdDeviation="0.651357" result="effect1_foregroundBlur_323_107"/>
</filter>
<linearGradient id="paint0_linear_323_107" x1="259.729" y1="29.5735" x2="259.729" y2="285.073" gradientUnits="userSpaceOnUse">
<stop stop-color="#030D0C" stop-opacity="0"/>
<stop offset="1" stop-color="white"/>
</linearGradient>
<linearGradient id="paint1_linear_323_107" x1="282.255" y1="159.922" x2="282.255" y2="372.698" gradientUnits="userSpaceOnUse">
<stop stop-color="white"/>
<stop offset="1" stop-color="white" stop-opacity="0"/>
</linearGradient>
<linearGradient id="paint2_linear_323_107" x1="282.255" y1="159.922" x2="282.255" y2="372.698" gradientUnits="userSpaceOnUse">
<stop stop-color="white"/>
<stop offset="1" stop-color="white" stop-opacity="0"/>
</linearGradient>
<linearGradient id="paint3_linear_323_107" x1="282.255" y1="159.922" x2="282.255" y2="372.698" gradientUnits="userSpaceOnUse">
<stop stop-color="white"/>
<stop offset="1" stop-color="white" stop-opacity="0"/>
</linearGradient>
<linearGradient id="paint4_linear_323_107" x1="282.255" y1="159.923" x2="282.255" y2="372.699" gradientUnits="userSpaceOnUse">
<stop stop-color="white"/>
<stop offset="1" stop-color="white" stop-opacity="0"/>
</linearGradient>
<linearGradient id="paint5_linear_323_107" x1="282.255" y1="159.922" x2="282.255" y2="372.698" gradientUnits="userSpaceOnUse">
<stop stop-color="white"/>
<stop offset="1" stop-color="white" stop-opacity="0"/>
</linearGradient>
<linearGradient id="paint6_linear_323_107" x1="394.614" y1="159.92" x2="175.866" y2="207.143" gradientUnits="userSpaceOnUse">
<stop stop-color="white"/>
<stop offset="1" stop-color="white" stop-opacity="0"/>
</linearGradient>
<linearGradient id="paint7_linear_323_107" x1="394.614" y1="159.922" x2="175.866" y2="207.145" gradientUnits="userSpaceOnUse">
<stop stop-color="white"/>
<stop offset="1" stop-color="white" stop-opacity="0"/>
</linearGradient>
<linearGradient id="paint8_linear_323_107" x1="394.614" y1="159.922" x2="175.866" y2="207.145" gradientUnits="userSpaceOnUse">
<stop stop-color="white"/>
<stop offset="1" stop-color="white" stop-opacity="0"/>
</linearGradient>
<linearGradient id="paint9_linear_323_107" x1="394.614" y1="159.921" x2="175.866" y2="207.144" gradientUnits="userSpaceOnUse">
<stop stop-color="white"/>
<stop offset="1" stop-color="white" stop-opacity="0"/>
</linearGradient>
<linearGradient id="paint10_linear_323_107" x1="372.037" y1="92.8188" x2="418.099" y2="144.743" gradientUnits="userSpaceOnUse">
<stop stop-color="white"/>
<stop offset="1" stop-color="white" stop-opacity="0"/>
</linearGradient>
<linearGradient id="paint11_linear_323_107" x1="368.526" y1="103.9" x2="393.204" y2="154.08" gradientUnits="userSpaceOnUse">
<stop stop-color="white"/>
<stop offset="1" stop-color="white" stop-opacity="0"/>
</linearGradient>
<linearGradient id="paint12_linear_323_107" x1="372.037" y1="92.8188" x2="412.42" y2="145.407" gradientUnits="userSpaceOnUse">
<stop stop-color="white"/>
<stop offset="1" stop-color="white" stop-opacity="0"/>
</linearGradient>
<linearGradient id="paint13_linear_323_107" x1="306.992" y1="-4.04731" x2="345.657" y2="39.5378" gradientUnits="userSpaceOnUse">
<stop stop-color="white"/>
<stop offset="1" stop-color="white" stop-opacity="0"/>
</linearGradient>
<linearGradient id="paint14_linear_323_107" x1="304.045" y1="5.25506" x2="324.759" y2="47.3761" gradientUnits="userSpaceOnUse">
<stop stop-color="white"/>
<stop offset="1" stop-color="white" stop-opacity="0"/>
</linearGradient>
<linearGradient id="paint15_linear_323_107" x1="306.992" y1="-4.04731" x2="340.89" y2="40.0958" gradientUnits="userSpaceOnUse">
<stop stop-color="white"/>
<stop offset="1" stop-color="white" stop-opacity="0"/>
</linearGradient>
<linearGradient id="paint16_linear_323_107" x1="285.371" y1="32.8782" x2="190.134" y2="140.234" gradientUnits="userSpaceOnUse">
<stop stop-color="white"/>
<stop offset="1" stop-color="white" stop-opacity="0"/>
</linearGradient>
<linearGradient id="paint17_linear_323_107" x1="292.629" y1="55.7914" x2="241.607" y2="159.542" gradientUnits="userSpaceOnUse">
<stop stop-color="white"/>
<stop offset="1" stop-color="white" stop-opacity="0"/>
</linearGradient>
<linearGradient id="paint18_linear_323_107" x1="285.371" y1="32.8782" x2="201.876" y2="141.608" gradientUnits="userSpaceOnUse">
<stop stop-color="white"/>
<stop offset="1" stop-color="white" stop-opacity="0"/>
</linearGradient>
</defs>
</svg>
