<svg width="56" height="59" viewBox="0 0 56 59" fill="none" xmlns="http://www.w3.org/2000/svg">
<g clip-path="url(#clip0_20001_511)">
<g clip-path="url(#clip1_20001_511)">
<g clip-path="url(#clip2_20001_511)">
<path d="M28.0557 58.022L52.3038 43.994V34.642L44.2211 39.318L36.1384 43.994L28.0558 48.67L28.0557 58.022Z" fill="#050A0A"/>
<path d="M3.80812 34.642L3.80811 43.994L28.0561 58.022L28.0562 48.67L11.8908 39.318L3.80812 34.642Z" fill="#050A0A"/>
<path d="M11.8906 20.614V29.966L19.9733 34.642L28.056 39.318V29.966L11.8906 20.614Z" fill="#050A0A"/>
<path d="M44.2215 20.614L28.0562 29.966V39.318L44.2215 29.966V20.614Z" fill="#050A0A"/>
<path d="M19.9731 6.58594V15.938L28.0558 20.614V11.262L19.9731 6.58594Z" fill="#050A0A"/>
<path d="M36.1388 6.58594L28.0562 11.262V20.614L36.1388 15.938V6.58594Z" fill="#050A0A"/>
<path d="M28.0562 29.966L11.8908 20.614M28.0562 29.966L44.2215 20.614M28.0562 29.966V39.318M11.8908 20.614L19.9735 15.938M11.8908 20.614V29.966M44.2215 20.614L36.1388 15.938M44.2215 20.614V29.966M28.0562 39.318L19.9735 34.642L11.8908 29.966M28.0562 39.318L44.2215 29.966M28.0562 11.262L19.9735 6.58591M28.0562 11.262L36.1388 6.58591M28.0562 11.262V20.614M19.9735 6.58591L28.0562 1.90991L36.1388 6.58591M19.9735 6.58591V15.938M36.1388 6.58591V15.938M28.0562 20.614L19.9735 15.938M28.0562 20.614L36.1388 15.938M11.8908 29.966L3.80812 34.642M3.80812 34.642L3.80811 43.994L28.0561 58.022M3.80812 34.642L11.8908 39.318L28.0562 48.67M28.0561 58.022L52.3042 43.994V34.642M28.0561 58.022L28.0562 48.67M28.0562 48.67L36.1388 43.994L44.2215 39.318L52.3042 34.642M52.3042 34.642L44.2215 29.966" stroke="#51E0CF" stroke-linejoin="round"/>
<path d="M3.80811 34.642V43.994L28.0561 58.022V48.67L11.8908 39.318L3.80811 34.642Z" fill="#050A0A"/>
<path d="M11.8906 20.614V29.966L19.9732 34.642L28.0559 39.318V29.966L11.8906 20.614Z" fill="#050A0A"/>
<path d="M19.9731 6.58594V15.938L28.0558 20.614V11.262L19.9731 6.58594Z" fill="#050A0A"/>
<path d="M3.80811 34.642V43.994L28.0561 58.022V48.67L11.8908 39.318L3.80811 34.642Z" stroke="#51E0CF" stroke-width="0.448" stroke-linejoin="round"/>
<path d="M11.8906 20.614V29.966L19.9732 34.642L28.0559 39.318V29.966L11.8906 20.614Z" stroke="#51E0CF" stroke-width="0.448" stroke-linejoin="round"/>
<path d="M19.9731 6.58594V15.938L28.0558 20.614V11.262L19.9731 6.58594Z" stroke="#51E0CF" stroke-width="0.448" stroke-linejoin="round"/>
<path d="M11.8908 29.9659L3.80811 34.6419L11.8908 39.3179L28.0561 48.6699L36.1388 43.9939L44.2215 39.3179L52.3042 34.6419L44.2215 29.9659L28.0562 39.3179L19.9735 34.6419L11.8908 29.9659Z" fill="#050A0A"/>
<path d="M19.9733 15.9379L11.8906 20.6139L28.056 29.9659L44.2213 20.6139L36.1386 15.9379L28.056 20.6139L19.9733 15.9379Z" fill="#050A0A"/>
<path d="M28.0558 1.90991L19.9731 6.58591L28.0558 11.2619L36.1384 6.58591L28.0558 1.90991Z" fill="#050A0A"/>
<path d="M11.8908 29.9659L3.80811 34.6419L11.8908 39.3179L28.0561 48.6699L36.1388 43.9939L44.2215 39.3179L52.3042 34.6419L44.2215 29.9659L28.0562 39.3179L19.9735 34.6419L11.8908 29.9659Z" stroke="#51E0CF" stroke-width="0.448" stroke-linejoin="round"/>
<path d="M19.9733 15.9379L11.8906 20.6139L28.056 29.9659L44.2213 20.6139L36.1386 15.9379L28.056 20.6139L19.9733 15.9379Z" stroke="#51E0CF" stroke-width="0.448" stroke-linejoin="round"/>
<path d="M28.0558 1.90991L19.9731 6.58591L28.0558 11.2619L36.1384 6.58591L28.0558 1.90991Z" stroke="#51E0CF" stroke-width="0.448" stroke-linejoin="round"/>
</g>
</g>
</g>
<defs>
<clipPath id="clip0_20001_511">
<rect width="56" height="58" fill="white" transform="translate(0 0.909912)"/>
</clipPath>
<clipPath id="clip1_20001_511">
<rect width="56" height="58" fill="white" transform="translate(0 0.909912)"/>
</clipPath>
<clipPath id="clip2_20001_511">
<rect width="56" height="58" fill="white" transform="translate(0 0.909912)"/>
</clipPath>
</defs>
</svg>
