<svg width="58" height="57" viewBox="0 0 58 57" fill="none" xmlns="http://www.w3.org/2000/svg">
<g clip-path="url(#clip0_20001_559)">
<g clip-path="url(#clip1_20001_559)">
<path d="M14.6495 20.3342C17.1371 13.0482 26.3091 9.58474 35.1357 12.5984C43.9623 15.612 49.1011 23.9615 46.6135 31.2475C45.9916 33.069 44.952 34.6516 43.6044 35.9538M14.6495 20.3342C12.1619 27.6202 17.3007 35.9697 26.1273 38.9833M14.6495 20.3342C18.7199 16.6126 25.392 15.4152 31.874 17.6283C40.7006 20.6419 45.8163 28.9263 43.3287 36.2123M43.6044 35.9538C39.5615 39.8604 32.7473 41.2435 26.1273 38.9833M43.6044 35.9538C43.5139 36.0412 43.422 36.1274 43.3287 36.2123M26.1273 38.9833C32.5991 41.1929 39.2566 39.9205 43.3287 36.2123M5.5169 17.2161C1.60781 28.6655 9.68307 41.7861 23.5535 46.5218C34.415 50.2302 45.6093 47.6973 51.832 40.9261C52.4914 40.2085 53.0951 39.4433 53.6365 38.6329M5.5169 17.2161L5.52705 17.1864M5.5169 17.2161C5.52032 17.2061 5.5237 17.1962 5.52705 17.1864M53.6365 38.6329C54.5105 37.3249 55.2225 35.8991 55.7461 34.3655C59.6552 22.9161 51.58 9.79549 37.7095 5.05981C25.3749 0.848471 12.611 4.68625 7.18667 13.6396M53.6365 38.6329C53.6365 38.6329 51.6066 41.6781 50.251 43.2799C42.3143 52.6577 32.6211 55.7041 20.2687 51.4867C6.39826 46.751 -1.67701 33.6304 2.23208 22.181C2.80414 20.5055 3.98113 18.524 5.00879 16.7757C5.93845 15.1941 7.18667 13.6396 7.18667 13.6396M5.52705 17.1864C5.70642 16.6609 5.79463 16.4025 6.14624 15.6204C6.50442 14.8236 7.18667 13.6396 7.18667 13.6396" stroke="#E8BF80" stroke-linejoin="round"/>
<path d="M46.6135 31.2472C49.1011 23.9613 43.9623 15.6118 35.1356 12.5982C26.309 9.58456 17.137 13.048 14.6494 20.334C18.7198 16.6124 25.392 15.415 31.8739 17.6281C40.7005 20.6417 45.8162 28.9261 43.3286 36.2121C43.4219 36.1272 43.5138 36.041 43.6043 35.9535C44.9519 34.6513 45.9916 33.0687 46.6135 31.2472Z" stroke="#E8BF80" stroke-linejoin="round"/>
<path d="M23.5535 46.5216C9.68307 41.7859 1.60781 28.6653 5.5169 17.2159L5.52705 17.1862C5.70642 16.6607 5.79463 16.4023 6.14624 15.6202C6.50442 14.8234 7.18667 13.6394 7.18667 13.6394C7.18667 13.6394 5.93845 15.1939 5.00879 16.7754C3.98113 18.5237 2.80414 20.5052 2.23208 22.1807C-1.67701 33.6301 6.39826 46.7507 20.2687 51.4864C32.6211 55.7038 42.3143 52.6575 50.251 43.2797C51.6066 41.6779 53.6366 38.6327 53.6366 38.6327C53.0951 39.4431 52.4915 40.2083 51.832 40.9259C45.6093 47.6971 34.415 50.23 23.5535 46.5216Z" stroke="#E8BF80" stroke-linejoin="round"/>
<path fill-rule="evenodd" clip-rule="evenodd" d="M55.746 34.3655C59.6551 22.9161 51.5799 9.79549 37.7094 5.05981C25.3748 0.848471 12.6109 4.68625 7.18652 13.6396C7.18652 13.6396 6.50427 14.8236 6.14609 15.6204C5.79448 16.4025 5.70627 16.6609 5.5269 17.1864L5.51675 17.2161C1.60766 28.6655 9.68292 41.7861 23.5534 46.5218C34.4149 50.2302 45.6092 47.6973 51.8319 40.9261C52.4913 40.2085 53.095 39.4433 53.6364 38.6329C54.5104 37.3249 55.2224 35.8991 55.746 34.3655ZM35.1356 12.5984C43.9622 15.612 49.101 23.9615 46.6134 31.2475C45.9915 33.069 44.9519 34.6516 43.6043 35.9538C43.5138 36.0412 43.4219 36.1274 43.3286 36.2123C39.2565 39.9205 32.599 41.1929 26.1272 38.9833C17.3006 35.9697 12.1618 27.6202 14.6494 20.3342C17.137 13.0482 26.309 9.58474 35.1356 12.5984Z" stroke="#E8BF80" stroke-linejoin="round"/>
</g>
</g>
<defs>
<clipPath id="clip0_20001_559">
<rect width="58" height="56" fill="white" transform="translate(0 0.219971)"/>
</clipPath>
<clipPath id="clip1_20001_559">
<rect width="58" height="56" fill="white" transform="translate(0 0.219971)"/>
</clipPath>
</defs>
</svg>
