<svg width="48" height="49" viewBox="0 0 48 49" fill="none" xmlns="http://www.w3.org/2000/svg">
<g clip-path="url(#clip0_20001_604)">
<g clip-path="url(#clip1_20001_604)">
<path d="M11.5 35.3401H14.5H33.5H36.5C37.6046 35.3401 38.5 34.4447 38.5 33.3401V14.3401C38.5 12.6832 37.1569 11.3401 35.5 11.3401H12.5C10.8431 11.3401 9.5 12.6832 9.5 14.3401V33.3401C9.5 34.4447 10.3954 35.3401 11.5 35.3401Z" fill="#E05151" fill-opacity="0.2"/>
<path d="M22.9215 31.3678L19.469 36.2589C18.8518 37.1333 19.4771 38.3401 20.5474 38.3401H27.4524C28.5227 38.3401 29.148 37.1333 28.5308 36.2589L25.0783 31.3678C24.5524 30.6228 23.4474 30.6228 22.9215 31.3678Z" fill="#E05151" fill-opacity="0.16" stroke="#B84242" stroke-width="1.5" stroke-linecap="round" stroke-linejoin="round"/>
<path d="M14.5 35.3401H11.5C10.3954 35.3401 9.5 34.4447 9.5 33.3401V14.3401C9.5 12.6832 10.8431 11.3401 12.5 11.3401H35.5C37.1569 11.3401 38.5 12.6832 38.5 14.3401V33.3401C38.5 34.4447 37.6046 35.3401 36.5 35.3401H33.5" stroke="#B84242" stroke-width="1.5" stroke-linecap="round" stroke-linejoin="round"/>
</g>
</g>
<defs>
<clipPath id="clip0_20001_604">
<rect width="48" height="48" fill="white" transform="translate(0 0.840088)"/>
</clipPath>
<clipPath id="clip1_20001_604">
<rect width="48" height="48" fill="white" transform="translate(0 0.840088)"/>
</clipPath>
</defs>
</svg>
