<svg width="81" height="81" viewBox="0 0 81 81" fill="none" xmlns="http://www.w3.org/2000/svg">
<g clip-path="url(#clip0_20001_188)">
<path d="M2.23584 56.6925V26.1427M2.23584 56.6925H55.1497C66.0253 56.6925 75.231 52.5644 78.3226 46.8743C79.0432 45.548 79.4316 44.1368 79.4316 42.6734M2.23584 56.6925V34.5444M2.23584 56.6925V65.0943M2.23584 26.1427C2.23584 18.4001 13.1072 12.1235 26.5177 12.1235C39.9282 12.1235 50.7996 18.4001 50.7996 26.1427V28.6542H55.1497C68.5603 28.6542 79.4316 34.9308 79.4316 42.6734M2.23584 26.1427V34.5444M79.4316 42.6734V51.078M79.4316 42.6734V51.0751M2.23584 34.5444V65.0943M2.23584 65.0943H55.1497C68.5585 65.0943 79.4289 58.8192 79.4316 51.078M79.4316 51.078C79.4316 51.0771 79.4316 51.0761 79.4316 51.0751M79.4316 51.078V51.0751" stroke="white" stroke-opacity="0.1" stroke-width="0.97561" stroke-linejoin="round"/>
<path d="M55.1492 56.6925H2.23535V65.0942H55.1492C68.558 65.0942 79.4284 58.8192 79.4311 51.078V51.0751V42.6733C79.4311 44.1369 79.0427 45.548 78.3221 46.8742C75.2306 52.5645 66.0248 56.6925 55.1492 56.6925Z" fill="white" fill-opacity="0.12" stroke="white" stroke-opacity="0.1" stroke-width="0.97561" stroke-linejoin="round"/>
<path d="M2.23584 34.5444V56.6925H55.1497C66.0254 56.6925 75.231 52.5644 78.3226 46.8743C79.0432 45.5479 79.4316 44.1368 79.4316 42.6733C79.4316 34.9308 68.5602 28.6542 55.1497 28.6542H50.7995V26.1427C50.7995 18.4001 39.9282 12.1235 26.5177 12.1235C13.1072 12.1235 2.23585 18.4001 2.23585 26.1427L2.23584 34.5444Z" fill="url(#paint0_linear_20001_188)" fill-opacity="0.2"/>
<path d="M2.23584 34.5444V56.6925H55.1497C66.0254 56.6925 75.231 52.5644 78.3226 46.8743C79.0432 45.5479 79.4316 44.1368 79.4316 42.6733C79.4316 34.9308 68.5602 28.6542 55.1497 28.6542H50.7995V26.1427C50.7995 18.4001 39.9282 12.1235 26.5177 12.1235C13.1072 12.1235 2.23585 18.4001 2.23585 26.1427L2.23584 34.5444Z" stroke="white" stroke-opacity="0.1" stroke-width="0.97561" stroke-linejoin="round"/>
</g>
<defs>
<linearGradient id="paint0_linear_20001_188" x1="58.0036" y1="24.4949" x2="30.1197" y2="72.7912" gradientUnits="userSpaceOnUse">
<stop stop-color="white"/>
<stop offset="1" stop-color="#000505" stop-opacity="0"/>
</linearGradient>
<clipPath id="clip0_20001_188">
<rect width="80" height="80" fill="white" transform="translate(0.719727 0.970215)"/>
</clipPath>
</defs>
</svg>
