<svg width="21" height="21" viewBox="0 0 21 21" fill="none"
    xmlns="http://www.w3.org/2000/svg">
    <path d="M10.3335 20.257C15.8563 20.257 20.3335 15.7798 20.3335 10.257C20.3335 9.7079 20.2892 9.1692 20.2041 8.6441C19.5744 11.8847 16.7211 14.3311 13.2965 14.3311C9.41 14.3311 6.2594 11.1805 6.2594 7.294C6.2594 3.8694 8.7058 1.01607 11.9463 0.386379C11.4213 0.301239 10.8826 0.256989 10.3335 0.256989C4.81065 0.256989 0.333496 4.7341 0.333496 10.257C0.333496 15.7798 4.81065 20.257 10.3335 20.257Z" fill="#51E0CF"/>
    <path d="M10.3335 20.257C15.8563 20.257 20.3335 15.7798 20.3335 10.257C20.3335 9.7079 20.2892 9.1692 20.2041 8.6441C19.5744 11.8847 16.7211 14.3311 13.2965 14.3311C9.41 14.3311 6.2594 11.1805 6.2594 7.294C6.2594 3.8694 8.7058 1.01607 11.9463 0.386379C11.4213 0.301239 10.8826 0.256989 10.3335 0.256989C4.81065 0.256989 0.333496 4.7341 0.333496 10.257C0.333496 15.7798 4.81065 20.257 10.3335 20.257Z" fill="url(#paint0_linear_22028_17)" fill-opacity="0.4"/>
    <defs>
        <linearGradient id="paint0_linear_22028_17" x1="10.3335" y1="0.256989" x2="10.3335" y2="15.5186" gradientUnits="userSpaceOnUse">
            <stop stop-color="white"/>
            <stop offset="1" stop-color="white" stop-opacity="0"/>
        </linearGradient>
    </defs>
</svg>
    