<svg width="32" height="33" viewBox="0 0 32 33" fill="none" xmlns="http://www.w3.org/2000/svg">
<g clip-path="url(#clip0_20001_755)">
<path d="M15.3335 27.1367C20.8563 27.1367 25.3335 22.6595 25.3335 17.1367C25.3335 16.5876 25.2892 16.0489 25.2041 15.5238C24.5744 18.7644 21.7211 21.2108 18.2965 21.2108C14.41 21.2108 11.2594 18.0602 11.2594 14.1737C11.2594 10.7491 13.7058 7.8958 16.9463 7.26611C16.4213 7.18097 15.8826 7.13672 15.3335 7.13672C9.81065 7.13672 5.3335 11.6138 5.3335 17.1367C5.3335 22.6595 9.81065 27.1367 15.3335 27.1367Z" fill="#E0A751"/>
<path d="M15.3335 27.1367C20.8563 27.1367 25.3335 22.6595 25.3335 17.1367C25.3335 16.5876 25.2892 16.0489 25.2041 15.5238C24.5744 18.7644 21.7211 21.2108 18.2965 21.2108C14.41 21.2108 11.2594 18.0602 11.2594 14.1737C11.2594 10.7491 13.7058 7.8958 16.9463 7.26611C16.4213 7.18097 15.8826 7.13672 15.3335 7.13672C9.81065 7.13672 5.3335 11.6138 5.3335 17.1367C5.3335 22.6595 9.81065 27.1367 15.3335 27.1367Z" fill="url(#paint0_linear_20001_755)" fill-opacity="0.4"/>
</g>
<defs>
<linearGradient id="paint0_linear_20001_755" x1="15.3335" y1="7.13672" x2="15.3335" y2="22.3983" gradientUnits="userSpaceOnUse">
<stop stop-color="white"/>
<stop offset="1" stop-color="white" stop-opacity="0"/>
</linearGradient>
<clipPath id="clip0_20001_755">
<rect width="32" height="32" fill="white" transform="translate(0 0.469727)"/>
</clipPath>
</defs>
</svg>
