<svg width="48" height="49" viewBox="0 0 48 49" fill="none" xmlns="http://www.w3.org/2000/svg">
<g clip-path="url(#clip0_20001_595)">
<g clip-path="url(#clip1_20001_595)">
<path d="M37.8074 31.0987C36.8681 33.2695 35.412 35.1775 33.566 36.6563C31.7201 38.1352 29.5404 39.1401 27.217 39.5833C24.8937 40.0265 22.4971 39.8946 20.2364 39.1991C17.9757 38.5036 15.9195 37.2657 14.247 35.5932C12.5745 33.9207 11.3365 31.8644 10.641 29.6037C9.94553 27.343 9.81364 24.9465 10.2568 22.6231C10.7 20.2997 11.7049 18.12 13.1838 16.2741C14.6626 14.4282 16.5706 12.972 18.7414 12.0327" stroke="#42B8AA" stroke-width="1.5" stroke-linecap="round"/>
<path d="M38 25.3401C38.5523 25.3401 39.0036 24.8919 38.9655 24.3409C38.8576 22.7787 38.4972 21.242 37.8963 19.7912C37.1676 18.032 36.0995 16.4335 34.753 15.0871C33.4066 13.7406 31.8081 12.6725 30.0489 11.9438C28.5981 11.3429 27.0614 10.9825 25.4992 10.8746C24.9483 10.8365 24.5 11.2878 24.5 11.8401V23.3401C24.5 24.4447 25.3954 25.3401 26.5 25.3401H38Z" fill="#51E0CF" fill-opacity="0.24" stroke="#42B8AA" stroke-width="1.5"/>
</g>
</g>
<defs>
<clipPath id="clip0_20001_595">
<rect width="48" height="48" fill="white" transform="translate(0 0.840088)"/>
</clipPath>
<clipPath id="clip1_20001_595">
<rect width="48" height="48" fill="white" transform="translate(0 0.840088)"/>
</clipPath>
</defs>
</svg>
