<svg width="32" height="33" viewBox="0 0 32 33" fill="none" xmlns="http://www.w3.org/2000/svg">
<g clip-path="url(#clip0_20001_763)">
<path d="M14.6665 16.4699C18.3484 16.4699 21.3332 13.4851 21.3332 9.80322C21.3332 13.4851 24.318 16.4699 27.9999 16.4699C24.318 16.4699 21.3332 19.4546 21.3332 23.1365C21.3332 19.4546 18.3484 16.4699 14.6665 16.4699Z" fill="#E05151"/>
<path d="M14.6665 16.4699C18.3484 16.4699 21.3332 13.4851 21.3332 9.80322C21.3332 13.4851 24.318 16.4699 27.9999 16.4699C24.318 16.4699 21.3332 19.4546 21.3332 23.1365C21.3332 19.4546 18.3484 16.4699 14.6665 16.4699Z" fill="url(#paint0_linear_20001_763)" fill-opacity="0.4"/>
<path d="M14.6665 16.4699C18.3484 16.4699 21.3332 13.4851 21.3332 9.80322C21.3332 13.4851 24.318 16.4699 27.9999 16.4699C24.318 16.4699 21.3332 19.4546 21.3332 23.1365C21.3332 19.4546 18.3484 16.4699 14.6665 16.4699Z" stroke="#E05151" stroke-width="2" stroke-linecap="round" stroke-linejoin="round"/>
<path d="M14.6665 16.4699C18.3484 16.4699 21.3332 13.4851 21.3332 9.80322C21.3332 13.4851 24.318 16.4699 27.9999 16.4699C24.318 16.4699 21.3332 19.4546 21.3332 23.1365C21.3332 19.4546 18.3484 16.4699 14.6665 16.4699Z" stroke="url(#paint1_linear_20001_763)" stroke-opacity="0.4" stroke-width="2" stroke-linecap="round" stroke-linejoin="round"/>
<path d="M10.6665 9.13623C11.7711 9.13623 12.6665 8.2408 12.6665 7.13623C12.6665 8.2408 13.562 9.13623 14.6665 9.13623C13.562 9.13623 12.6665 10.0317 12.6665 11.1362C12.6665 10.0317 11.7711 9.13623 10.6665 9.13623Z" stroke="#E05151" stroke-width="2" stroke-linecap="round" stroke-linejoin="round"/>
<path d="M10.6665 9.13623C11.7711 9.13623 12.6665 8.2408 12.6665 7.13623C12.6665 8.2408 13.562 9.13623 14.6665 9.13623C13.562 9.13623 12.6665 10.0317 12.6665 11.1362C12.6665 10.0317 11.7711 9.13623 10.6665 9.13623Z" stroke="url(#paint2_linear_20001_763)" stroke-opacity="0.4" stroke-width="2" stroke-linecap="round" stroke-linejoin="round"/>
<path d="M4 15.1365C4.73638 15.1365 5.33333 14.5396 5.33333 13.8032C5.33333 14.5396 5.93029 15.1365 6.66667 15.1365C5.93029 15.1365 5.33333 15.7335 5.33333 16.4699C5.33333 15.7335 4.73638 15.1365 4 15.1365Z" stroke="#E05151" stroke-width="2" stroke-linecap="round" stroke-linejoin="round"/>
<path d="M4 15.1365C4.73638 15.1365 5.33333 14.5396 5.33333 13.8032C5.33333 14.5396 5.93029 15.1365 6.66667 15.1365C5.93029 15.1365 5.33333 15.7335 5.33333 16.4699C5.33333 15.7335 4.73638 15.1365 4 15.1365Z" stroke="url(#paint3_linear_20001_763)" stroke-opacity="0.4" stroke-width="2" stroke-linecap="round" stroke-linejoin="round"/>
<path d="M6.66699 23.1362C8.87613 23.1362 10.6669 21.3453 10.6669 19.1362C10.6669 21.3453 12.4578 23.1362 14.6669 23.1362C12.4578 23.1362 10.6669 24.927 10.6669 27.1362C10.6669 24.927 8.87613 23.1362 6.66699 23.1362Z" fill="#E05151"/>
<path d="M6.66699 23.1362C8.87613 23.1362 10.6669 21.3453 10.6669 19.1362C10.6669 21.3453 12.4578 23.1362 14.6669 23.1362C12.4578 23.1362 10.6669 24.927 10.6669 27.1362C10.6669 24.927 8.87613 23.1362 6.66699 23.1362Z" fill="url(#paint4_linear_20001_763)" fill-opacity="0.4"/>
<path d="M6.66699 23.1362C8.87613 23.1362 10.6669 21.3453 10.6669 19.1362C10.6669 21.3453 12.4578 23.1362 14.6669 23.1362C12.4578 23.1362 10.6669 24.927 10.6669 27.1362C10.6669 24.927 8.87613 23.1362 6.66699 23.1362Z" stroke="#E05151" stroke-width="2" stroke-linecap="round" stroke-linejoin="round"/>
<path d="M6.66699 23.1362C8.87613 23.1362 10.6669 21.3453 10.6669 19.1362C10.6669 21.3453 12.4578 23.1362 14.6669 23.1362C12.4578 23.1362 10.6669 24.927 10.6669 27.1362C10.6669 24.927 8.87613 23.1362 6.66699 23.1362Z" stroke="url(#paint5_linear_20001_763)" stroke-opacity="0.4" stroke-width="2" stroke-linecap="round" stroke-linejoin="round"/>
</g>
<defs>
<linearGradient id="paint0_linear_20001_763" x1="21.3332" y1="9.80322" x2="21.3332" y2="19.9776" gradientUnits="userSpaceOnUse">
<stop stop-color="white"/>
<stop offset="1" stop-color="white" stop-opacity="0"/>
</linearGradient>
<linearGradient id="paint1_linear_20001_763" x1="21.3332" y1="9.80322" x2="21.3332" y2="19.9776" gradientUnits="userSpaceOnUse">
<stop stop-color="white"/>
<stop offset="1" stop-color="white" stop-opacity="0"/>
</linearGradient>
<linearGradient id="paint2_linear_20001_763" x1="12.6665" y1="7.13623" x2="12.6665" y2="10.1886" gradientUnits="userSpaceOnUse">
<stop stop-color="white"/>
<stop offset="1" stop-color="white" stop-opacity="0"/>
</linearGradient>
<linearGradient id="paint3_linear_20001_763" x1="5.33333" y1="13.8032" x2="5.33333" y2="15.8381" gradientUnits="userSpaceOnUse">
<stop stop-color="white"/>
<stop offset="1" stop-color="white" stop-opacity="0"/>
</linearGradient>
<linearGradient id="paint4_linear_20001_763" x1="10.6669" y1="19.1362" x2="10.6669" y2="25.2408" gradientUnits="userSpaceOnUse">
<stop stop-color="white"/>
<stop offset="1" stop-color="white" stop-opacity="0"/>
</linearGradient>
<linearGradient id="paint5_linear_20001_763" x1="10.6669" y1="19.1362" x2="10.6669" y2="25.2408" gradientUnits="userSpaceOnUse">
<stop stop-color="white"/>
<stop offset="1" stop-color="white" stop-opacity="0"/>
</linearGradient>
<clipPath id="clip0_20001_763">
<rect width="32" height="32" fill="white" transform="translate(0 0.469727)"/>
</clipPath>
</defs>
</svg>
